RedHatDisplay-Bold.ufo
<glyph name="dollar" format="2">
  <advance width="601"/>
  <unicode hex="0024"/>
  <outline>
    <contour>
      <point x="258" y="-75" type="line"/>
      <point x="324" y="-75" type="line"/>
      <point x="324" y="18" type="line"/>
      <point x="480" y="25"/>
      <point x="575" y="103"/>
      <point x="575" y="222" type="curve"/>
      <point x="575" y="321"/>
      <point x="516" y="372"/>
      <point x="377" y="399" type="curve" smooth="yes"/>
      <point x="324" y="408" type="line"/>
      <point x="324" y="567" type="line"/>
      <point x="378" y="557"/>
      <point x="436" y="535"/>
      <point x="498" y="498" type="curve"/>
      <point x="556" y="603" type="line"/>
      <point x="487" y="646"/>
      <point x="405" y="674"/>
      <point x="324" y="682" type="curve"/>
      <point x="324" y="759" type="line"/>
      <point x="258" y="759" type="line"/>
      <point x="258" y="685" type="line"/>
      <point x="111" y="680"/>
      <point x="21" y="605"/>
      <point x="21" y="485" type="curve"/>
      <point x="21" y="380"/>
      <point x="73" y="329"/>
      <point x="203" y="305" type="curve" smooth="yes"/>
      <point x="258" y="294" type="line"/>
      <point x="258" y="132" type="line"/>
      <point x="192" y="143"/>
      <point x="128" y="175"/>
      <point x="77" y="224" type="curve"/>
      <point x="6" y="127" type="line"/>
      <point x="72" y="65"/>
      <point x="160" y="27"/>
      <point x="258" y="19" type="curve"/>
    </contour>
    <contour>
      <point x="252" y="417" type="line" smooth="yes"/>
      <point x="169" y="431"/>
      <point x="148" y="447"/>
      <point x="148" y="496" type="curve" smooth="yes"/>
      <point x="148" y="540"/>
      <point x="191" y="570"/>
      <point x="258" y="572" type="curve"/>
      <point x="258" y="416" type="line"/>
    </contour>
    <contour>
      <point x="328" y="287" type="line" smooth="yes"/>
      <point x="421" y="272"/>
      <point x="443" y="257"/>
      <point x="443" y="210" type="curve"/>
      <point x="443" y="164"/>
      <point x="396" y="133"/>
      <point x="324" y="128" type="curve"/>
      <point x="324" y="288" type="line"/>
    </contour>
  </outline>
</glyph>
<glyph name="ampersand" format="2">
  <advance width="684"/>
  <unicode hex="0026"/>
  <outline>
    <contour>
      <point x="659" y="77" type="line"/>
      <point x="628" y="100"/>
      <point x="594" y="127"/>
      <point x="560" y="156" type="curve"/>
      <point x="596" y="212"/>
      <point x="624" y="284"/>
      <point x="644" y="372" type="curve"/>
      <point x="526" y="391" type="line"/>
      <point x="514" y="330"/>
      <point x="495" y="277"/>
      <point x="470" y="233" type="curve"/>
      <point x="422" y="277"/>
      <point x="376" y="322"/>
      <point x="337" y="364" type="curve"/>
      <point x="388" y="395" type="line" smooth="yes"/>
      <point x="455" y="435"/>
      <point x="487" y="485"/>
      <point x="487" y="547" type="curve" smooth="yes"/>
      <point x="487" y="642"/>
      <point x="407" y="712"/>
      <point x="298" y="712" type="curve" smooth="yes"/>
      <point x="185" y="712"/>
      <point x="102" y="636"/>
      <point x="102" y="535" type="curve"/>
      <point x="102" y="481"/>
      <point x="118" y="437"/>
      <point x="160" y="382" type="curve"/>
      <point x="62" y="328"/>
      <point x="24" y="276"/>
      <point x="24" y="189" type="curve"/>
      <point x="24" y="70"/>
      <point x="124" y="-10"/>
      <point x="271" y="-10" type="curve" smooth="yes"/>
      <point x="351" y="-10"/>
      <point x="422" y="13"/>
      <point x="479" y="57" type="curve"/>
      <point x="512" y="30"/>
      <point x="545" y="4"/>
      <point x="577" y="-20" type="curve"/>
    </contour>
    <contour>
      <point x="225" y="538" type="curve"/>
      <point x="225" y="580"/>
      <point x="254" y="610"/>
      <point x="294" y="610" type="curve" smooth="yes"/>
      <point x="333" y="610"/>
      <point x="363" y="581"/>
      <point x="363" y="543" type="curve" smooth="yes"/>
      <point x="363" y="511"/>
      <point x="348" y="488"/>
      <point x="312" y="466" type="curve" smooth="yes"/>
      <point x="271" y="441" type="line"/>
      <point x="236" y="484"/>
      <point x="225" y="509"/>
    </contour>
    <contour>
      <point x="151" y="199" type="curve"/>
      <point x="151" y="241"/>
      <point x="172" y="270"/>
      <point x="226" y="301" type="curve"/>
      <point x="276" y="245"/>
      <point x="333" y="187"/>
      <point x="393" y="132" type="curve"/>
      <point x="360" y="109"/>
      <point x="323" y="98"/>
      <point x="281" y="98" type="curve" smooth="yes"/>
      <point x="201" y="98"/>
      <point x="151" y="137"/>
    </contour>
  </outline>
</glyph>
<glyph name="quotesingle" format="2">
  <advance width="251"/>
  <unicode hex="0027"/>
  <outline>
    <contour>
      <point x="76" y="425" type="line"/>
      <point x="176" y="425" type="line"/>
      <point x="192" y="705" type="line"/>
      <point x="59" y="705" type="line"/>
    </contour>
  </outline>
</glyph>
<glyph name="plus" format="2">
  <advance width="550"/>
  <unicode hex="002B"/>
  <outline>
    <contour>
      <point x="329" y="129" type="line"/>
      <point x="329" y="306" type="line"/>
      <point x="504" y="306" type="line"/>
      <point x="504" y="412" type="line"/>
      <point x="329" y="412" type="line"/>
      <point x="329" y="584" type="line"/>
      <point x="222" y="584" type="line"/>
      <point x="222" y="412" type="line"/>
      <point x="46" y="412" type="line"/>
      <point x="46" y="306" type="line"/>
      <point x="222" y="306" type="line"/>
      <point x="222" y="129" type="line"/>
    </contour>
  </outline>
</glyph>
<glyph name="period" format="2">
  <advance width="241"/>
  <unicode hex="002E"/>
  <outline>
    <contour>
      <point x="120" y="153" type="curve" smooth="yes"/>
      <point x="76" y="153"/>
      <point x="39" y="116"/>
      <point x="39" y="71" type="curve" smooth="yes"/>
      <point x="39" y="27"/>
      <point x="76" y="-10"/>
      <point x="120" y="-10" type="curve" smooth="yes"/>
      <point x="165" y="-10"/>
      <point x="202" y="27"/>
      <point x="202" y="71" type="curve" smooth="yes"/>
      <point x="202" y="116"/>
      <point x="165" y="153"/>
    </contour>
  </outline>
</glyph>
<glyph name="zero" format="2">
  <advance width="685"/>
  <unicode hex="0030"/>
  <outline>
    <contour>
      <point x="342" y="-10" type="curve" smooth="yes"/>
      <point x="527" y="-10"/>
      <point x="650" y="134"/>
      <point x="650" y="351" type="curve"/>
      <point x="650" y="566"/>
      <point x="526" y="711"/>
      <point x="342" y="711" type="curve" smooth="yes"/>
      <point x="159" y="711"/>
      <point x="34" y="566"/>
      <point x="34" y="351" type="curve"/>
      <point x="34" y="134"/>
      <point x="158" y="-10"/>
    </contour>
    <contour>
      <point x="342" y="109" type="curve" smooth="yes"/>
      <point x="235" y="109"/>
      <point x="168" y="201"/>
      <point x="168" y="351" type="curve"/>
      <point x="168" y="499"/>
      <point x="235" y="592"/>
      <point x="342" y="592" type="curve" smooth="yes"/>
      <point x="449" y="592"/>
      <point x="517" y="499"/>
      <point x="517" y="351" type="curve"/>
      <point x="517" y="201"/>
      <point x="450" y="109"/>
    </contour>
  </outline>
</glyph>
<glyph name="six" format="2">
  <advance width="636"/>
  <unicode hex="0036"/>
  <outline>
    <contour>
      <point x="342" y="-11" type="curve"/>
      <point x="493" y="-11"/>
      <point x="604" y="88"/>
      <point x="604" y="221" type="curve" smooth="yes"/>
      <point x="604" y="347"/>
      <point x="503" y="436"/>
      <point x="360" y="436" type="curve"/>
      <point x="285" y="436"/>
      <point x="216" y="406"/>
      <point x="170" y="355" type="curve"/>
      <point x="177" y="507"/>
      <point x="247" y="591"/>
      <point x="368" y="591" type="curve" smooth="yes"/>
      <point x="422" y="591"/>
      <point x="466" y="577"/>
      <point x="507" y="545" type="curve"/>
      <point x="585" y="643" type="line"/>
      <point x="534" y="684"/>
      <point x="454" y="711"/>
      <point x="378" y="711" type="curve" smooth="yes"/>
      <point x="171" y="711"/>
      <point x="33" y="562"/>
      <point x="33" y="336" type="curve" smooth="yes"/>
      <point x="33" y="130"/>
      <point x="158" y="-11"/>
    </contour>
    <contour>
      <point x="338" y="328" type="curve"/>
      <point x="416" y="328"/>
      <point x="470" y="283"/>
      <point x="470" y="218" type="curve" smooth="yes"/>
      <point x="470" y="153"/>
      <point x="413" y="105"/>
      <point x="336" y="105" type="curve"/>
      <point x="258" y="105"/>
      <point x="199" y="162"/>
      <point x="178" y="251" type="curve"/>
      <point x="221" y="301"/>
      <point x="275" y="328"/>
    </contour>
  </outline>
</glyph>
<glyph name="eight" format="2">
  <advance width="633"/>
  <unicode hex="0038"/>
  <note>
Version created Tue Sep 18 15:49:42 2018
</note>
  <outline>
    <contour>
      <point x="316" y="-11" type="curve"/>
      <point x="481" y="-11"/>
      <point x="596" y="74"/>
      <point x="596" y="196" type="curve" smooth="yes"/>
      <point x="596" y="268"/>
      <point x="548" y="330"/>
      <point x="475" y="360" type="curve"/>
      <point x="534" y="392"/>
      <point x="573" y="449"/>
      <point x="573" y="514" type="curve" smooth="yes"/>
      <point x="573" y="626"/>
      <point x="462" y="711"/>
      <point x="316" y="711" type="curve"/>
      <point x="170" y="711"/>
      <point x="60" y="626"/>
      <point x="60" y="514" type="curve" smooth="yes"/>
      <point x="60" y="449"/>
      <point x="99" y="393"/>
      <point x="158" y="360" type="curve"/>
      <point x="85" y="330"/>
      <point x="37" y="268"/>
      <point x="37" y="196" type="curve" smooth="yes"/>
      <point x="37" y="74"/>
      <point x="152" y="-11"/>
    </contour>
    <contour>
      <point x="316" y="411" type="curve"/>
      <point x="247" y="411"/>
      <point x="194" y="452"/>
      <point x="194" y="505" type="curve"/>
      <point x="194" y="559"/>
      <point x="246" y="600"/>
      <point x="316" y="600" type="curve"/>
      <point x="387" y="600"/>
      <point x="439" y="559"/>
      <point x="439" y="505" type="curve"/>
      <point x="439" y="452"/>
      <point x="386" y="411"/>
    </contour>
    <contour>
      <point x="316" y="101" type="curve"/>
      <point x="234" y="101"/>
      <point x="174" y="144"/>
      <point x="174" y="204" type="curve"/>
      <point x="174" y="263"/>
      <point x="234" y="307"/>
      <point x="316" y="307" type="curve"/>
      <point x="399" y="307"/>
      <point x="459" y="263"/>
      <point x="459" y="204" type="curve"/>
      <point x="459" y="144"/>
      <point x="399" y="101"/>
    </contour>
  </outline>
</glyph>
<glyph name="question" format="2">
  <advance width="526"/>
  <unicode hex="003F"/>
  <outline>
    <contour>
      <point x="376" y="344" type="line" smooth="yes"/>
      <point x="469" y="408"/>
      <point x="500" y="451"/>
      <point x="500" y="524" type="curve" smooth="yes"/>
      <point x="500" y="630"/>
      <point x="398" y="710"/>
      <point x="264" y="710" type="curve"/>
      <point x="149" y="710"/>
      <point x="52" y="651"/>
      <point x="8" y="556" type="curve"/>
      <point x="118" y="510" type="line"/>
      <point x="145" y="563"/>
      <point x="198" y="595"/>
      <point x="259" y="595" type="curve" smooth="yes"/>
      <point x="320" y="595"/>
      <point x="366" y="561"/>
      <point x="366" y="516" type="curve"/>
      <point x="366" y="487"/>
      <point x="348" y="463"/>
      <point x="307" y="433" type="curve" smooth="yes"/>
      <point x="256" y="396" type="line" smooth="yes"/>
      <point x="193" y="349"/>
      <point x="174" y="304"/>
      <point x="179" y="212" type="curve"/>
      <point x="294" y="212" type="line"/>
      <point x="292" y="266"/>
      <point x="307" y="296"/>
      <point x="349" y="325" type="curve" smooth="yes"/>
    </contour>
    <contour>
      <point x="237" y="153" type="curve" smooth="yes"/>
      <point x="193" y="153"/>
      <point x="156" y="116"/>
      <point x="156" y="71" type="curve" smooth="yes"/>
      <point x="156" y="27"/>
      <point x="193" y="-10"/>
      <point x="237" y="-10" type="curve" smooth="yes"/>
      <point x="282" y="-10"/>
      <point x="318" y="27"/>
      <point x="318" y="71" type="curve" smooth="yes"/>
      <point x="318" y="116"/>
      <point x="282" y="153"/>
    </contour>
  </outline>
</glyph>
<glyph name="at" format="2">
  <advance width="788"/>
  <unicode hex="0040"/>
  <outline>
    <contour>
      <point x="352" y="48" type="curve" smooth="yes"/>
      <point x="389" y="48"/>
      <point x="426" y="63"/>
      <point x="457" y="89" type="curve"/>
      <point x="476" y="63"/>
      <point x="511" y="48"/>
      <point x="559" y="48" type="curve" smooth="yes"/>
      <point x="669" y="48"/>
      <point x="748" y="143"/>
      <point x="748" y="276" type="curve"/>
      <point x="748" y="448"/>
      <point x="600" y="581"/>
      <point x="410" y="581" type="curve"/>
      <point x="198" y="581"/>
      <point x="41" y="421"/>
      <point x="41" y="207" type="curve"/>
      <point x="41" y="5"/>
      <point x="197" y="-144"/>
      <point x="410" y="-144" type="curve"/>
      <point x="477" y="-144"/>
      <point x="538" y="-130"/>
      <point x="601" y="-100" type="curve"/>
      <point x="575" y="-44" type="line"/>
      <point x="527" y="-69"/>
      <point x="471" y="-81"/>
      <point x="410" y="-81" type="curve"/>
      <point x="233" y="-81"/>
      <point x="109" y="40"/>
      <point x="109" y="213" type="curve"/>
      <point x="109" y="388"/>
      <point x="238" y="523"/>
      <point x="407" y="523" type="curve"/>
      <point x="563" y="523"/>
      <point x="679" y="415"/>
      <point x="679" y="271" type="curve"/>
      <point x="679" y="178"/>
      <point x="635" y="113"/>
      <point x="572" y="113" type="curve" smooth="yes"/>
      <point x="537" y="113"/>
      <point x="520" y="133"/>
      <point x="528" y="169" type="curve" smooth="yes"/>
      <point x="571" y="372" type="line"/>
      <point x="481" y="372" type="line"/>
      <point x="477" y="353" type="line"/>
      <point x="453" y="374"/>
      <point x="420" y="386"/>
      <point x="384" y="386" type="curve" smooth="yes"/>
      <point x="285" y="386"/>
      <point x="207" y="305"/>
      <point x="207" y="203" type="curve" smooth="yes"/>
      <point x="207" y="116"/>
      <point x="270" y="48"/>
    </contour>
    <contour>
      <point x="293" y="210" type="curve" smooth="yes"/>
      <point x="293" y="265"/>
      <point x="336" y="310"/>
      <point x="386" y="310" type="curve" smooth="yes"/>
      <point x="419" y="310"/>
      <point x="445" y="297"/>
      <point x="461" y="273" type="curve"/>
      <point x="443" y="181" type="line" smooth="yes"/>
      <point x="440" y="168"/>
      <point x="439" y="156"/>
      <point x="439" y="148" type="curve"/>
      <point x="420" y="130"/>
      <point x="397" y="122"/>
      <point x="373" y="122" type="curve" smooth="yes"/>
      <point x="326" y="122"/>
      <point x="293" y="158"/>
    </contour>
  </outline>
</glyph>
<glyph name="F" format="2">
  <advance width="639"/>
  <unicode hex="0046"/>
  <outline>
    <contour>
      <point x="63" y="0" type="line"/>
      <point x="208" y="0" type="line"/>
      <point x="208" y="287" type="line"/>
      <point x="471" y="287" type="line"/>
      <point x="471" y="409" type="line"/>
      <point x="208" y="409" type="line"/>
      <point x="208" y="574" type="line"/>
      <point x="604" y="574" type="line"/>
      <point x="604" y="700" type="line"/>
      <point x="63" y="700" type="line"/>
    </contour>
  </outline>
</glyph>
<glyph name="Q" format="2">
  <advance width="813"/>
  <unicode hex="0051"/>
  <outline>
    <contour>
      <point x="777" y="350" type="curve"/>
      <point x="777" y="552"/>
      <point x="614" y="711"/>
      <point x="406" y="711" type="curve"/>
      <point x="199" y="711"/>
      <point x="36" y="552"/>
      <point x="36" y="350" type="curve"/>
      <point x="36" y="148"/>
      <point x="199" y="-11"/>
      <point x="406" y="-11" type="curve"/>
      <point x="464" y="-11"/>
      <point x="518" y="1"/>
      <point x="567" y="24" type="curve"/>
      <point x="613" y="-34" type="line"/>
      <point x="740" y="8" type="line"/>
      <point x="670" y="95" type="line"/>
      <point x="737" y="160"/>
      <point x="777" y="249"/>
    </contour>
    <contour>
      <point x="528" y="272" type="line"/>
      <point x="401" y="230" type="line"/>
      <point x="478" y="134" type="line"/>
      <point x="456" y="126"/>
      <point x="432" y="122"/>
      <point x="406" y="122" type="curve"/>
      <point x="281" y="122"/>
      <point x="185" y="221"/>
      <point x="185" y="350" type="curve"/>
      <point x="185" y="480"/>
      <point x="281" y="578"/>
      <point x="406" y="578" type="curve"/>
      <point x="532" y="578"/>
      <point x="628" y="480"/>
      <point x="628" y="350" type="curve"/>
      <point x="628" y="295"/>
      <point x="610" y="245"/>
      <point x="581" y="207" type="curve"/>
    </contour>
  </outline>
</glyph>
<glyph name="W" format="2">
  <advance width="944"/>
  <unicode hex="0057"/>
  <anchor x="471" y="700" name="top"/>
  <outline>
    <contour>
      <point x="333" y="0" type="line"/>
      <point x="472" y="489" type="line"/>
      <point x="611" y="0" type="line"/>
      <point x="763" y="0" type="line"/>
      <point x="918" y="700" type="line"/>
      <point x="774" y="700" type="line"/>
      <point x="679" y="227" type="line"/>
      <point x="543" y="700" type="line"/>
      <point x="407" y="700" type="line"/>
      <point x="270" y="225" type="line"/>
      <point x="175" y="700" type="line"/>
      <point x="26" y="700" type="line"/>
      <point x="181" y="0" type="line"/>
    </contour>
  </outline>
</glyph>
<glyph name="Y" format="2">
  <advance width="706"/>
  <unicode hex="0059"/>
  <anchor x="353" y="700" name="top"/>
  <outline>
    <contour>
      <point x="280" y="0" type="line"/>
      <point x="425" y="0" type="line"/>
      <point x="425" y="267" type="line"/>
      <point x="712" y="700" type="line"/>
      <point x="554" y="700" type="line"/>
      <point x="357" y="396" type="line"/>
      <point x="161" y="700" type="line"/>
      <point x="-6" y="700" type="line"/>
      <point x="280" y="268" type="line"/>
    </contour>
  </outline>
</glyph>
<glyph name="Z" format="2">
  <advance width="617"/>
  <unicode hex="005A"/>
  <anchor x="317" y="700" name="top"/>
  <outline>
    <contour>
      <point x="21" y="0" type="line"/>
      <point x="600" y="0" type="line"/>
      <point x="600" y="126" type="line"/>
      <point x="210" y="126" type="line"/>
      <point x="596" y="601" type="line"/>
      <point x="596" y="700" type="line"/>
      <point x="24" y="700" type="line"/>
      <point x="24" y="574" type="line"/>
      <point x="407" y="574" type="line"/>
      <point x="21" y="99" type="line"/>
    </contour>
  </outline>
</glyph>
<glyph name="asciicircum" format="2">
  <advance width="553"/>
  <unicode hex="005E"/>
  <outline>
    <contour>
      <point x="34" y="350" type="line"/>
      <point x="147" y="350" type="line"/>
      <point x="277" y="598" type="line"/>
      <point x="406" y="350" type="line"/>
      <point x="519" y="350" type="line"/>
      <point x="335" y="700" type="line"/>
      <point x="218" y="700" type="line"/>
    </contour>
  </outline>
</glyph>
<glyph name="grave" format="2">
  <advance width="517"/>
  <unicode hex="0060"/>
  <anchor x="300" y="521" name="_top"/>
  <outline>
    <contour>
      <point x="285" y="738" type="line"/>
      <point x="127" y="738" type="line"/>
      <point x="262" y="608" type="line"/>
      <point x="373" y="608" type="line"/>
    </contour>
  </outline>
</glyph>
<glyph name="a" format="2">
  <advance width="555"/>
  <unicode hex="0061"/>
  <note>
Version created Mon Aug  6 16:22:34 2018
</note>
  <anchor x="270" y="521" name="top"/>
  <anchor x="505" y="0" name="bottom"/>
  <outline>
    <contour>
      <point x="219" y="-9" type="curve" smooth="yes"/>
      <point x="279" y="-9"/>
      <point x="326" y="5"/>
      <point x="370" y="36" type="curve"/>
      <point x="370" y="0" type="line"/>
      <point x="505" y="0" type="line"/>
      <point x="505" y="338" type="line"/>
      <point x="505" y="461"/>
      <point x="424" y="531"/>
      <point x="283" y="531" type="curve" smooth="yes"/>
      <point x="208" y="531"/>
      <point x="133" y="513"/>
      <point x="51" y="475" type="curve"/>
      <point x="101" y="374" type="line"/>
      <point x="167" y="403"/>
      <point x="216" y="417"/>
      <point x="260" y="417" type="curve" smooth="yes"/>
      <point x="333" y="417"/>
      <point x="370" y="386"/>
      <point x="370" y="326" type="curve"/>
      <point x="370" y="289" type="line"/>
      <point x="329" y="302"/>
      <point x="286" y="309"/>
      <point x="243" y="309" type="curve" smooth="yes"/>
      <point x="109" y="309"/>
      <point x="29" y="250"/>
      <point x="29" y="151" type="curve" smooth="yes"/>
      <point x="29" y="56"/>
      <point x="107" y="-9"/>
    </contour>
    <contour>
      <point x="160" y="154" type="curve" smooth="yes"/>
      <point x="160" y="194"/>
      <point x="197" y="219"/>
      <point x="260" y="219" type="curve" smooth="yes"/>
      <point x="300" y="219"/>
      <point x="336" y="213"/>
      <point x="370" y="200" type="curve"/>
      <point x="370" y="122" type="line"/>
      <point x="338" y="100"/>
      <point x="300" y="89"/>
      <point x="255" y="89" type="curve"/>
      <point x="197" y="89"/>
      <point x="160" y="114"/>
    </contour>
  </outline>
</glyph>
<glyph name="b" format="2">
  <advance width="632"/>
  <unicode hex="0062"/>
  <outline>
    <contour>
      <point x="602" y="260" type="curve" smooth="yes"/>
      <point x="602" y="410"/>
      <point x="485" y="528"/>
      <point x="337" y="528" type="curve"/>
      <point x="283" y="528"/>
      <point x="232" y="511"/>
      <point x="191" y="480" type="curve"/>
      <point x="191" y="730" type="line"/>
      <point x="54" y="700" type="line"/>
      <point x="54" y="0" type="line"/>
      <point x="189" y="0" type="line"/>
      <point x="189" y="35" type="line"/>
      <point x="231" y="8"/>
      <point x="281" y="-7"/>
      <point x="333" y="-7" type="curve"/>
      <point x="484" y="-7"/>
      <point x="602" y="110"/>
    </contour>
    <contour>
      <point x="315" y="411" type="curve"/>
      <point x="400" y="411"/>
      <point x="467" y="346"/>
      <point x="467" y="260" type="curve" smooth="yes"/>
      <point x="467" y="174"/>
      <point x="401" y="109"/>
      <point x="315" y="109" type="curve"/>
      <point x="266" y="109"/>
      <point x="221" y="127"/>
      <point x="191" y="157" type="curve"/>
      <point x="191" y="362" type="line"/>
      <point x="222" y="394"/>
      <point x="265" y="411"/>
    </contour>
  </outline>
</glyph>
<glyph name="e" format="2">
  <advance width="586"/>
  <unicode hex="0065"/>
  <anchor x="296" y="521" name="top"/>
  <anchor x="394" y="0" name="bottom"/>
  <outline>
    <contour>
      <point x="521" y="65" type="curve"/>
      <point x="431" y="147" type="line"/>
      <point x="403" y="120"/>
      <point x="362" y="105"/>
      <point x="316" y="105" type="curve"/>
      <point x="244" y="105"/>
      <point x="187" y="149"/>
      <point x="168" y="214" type="curve"/>
      <point x="556" y="214" type="line"/>
      <point x="556" y="250" type="line"/>
      <point x="556" y="410"/>
      <point x="446" y="530"/>
      <point x="298" y="530" type="curve"/>
      <point x="147" y="530"/>
      <point x="30" y="411"/>
      <point x="30" y="260" type="curve" smooth="yes"/>
      <point x="30" y="108"/>
      <point x="152" y="-10"/>
      <point x="310" y="-10" type="curve"/>
      <point x="393" y="-10"/>
      <point x="457" y="13"/>
    </contour>
    <contour>
      <point x="295" y="417" type="curve"/>
      <point x="355" y="417"/>
      <point x="405" y="374"/>
      <point x="422" y="312" type="curve"/>
      <point x="167" y="312" type="line"/>
      <point x="184" y="376"/>
      <point x="232" y="417"/>
    </contour>
  </outline>
</glyph>
<glyph name="g" format="2">
  <advance width="628"/>
  <unicode hex="0067"/>
  <note>
Version created Sun Jan 13 16:53:00 2019
</note>
  <anchor x="312" y="521" name="top"/>
  <outline>
    <contour>
      <point x="294" y="-3" type="curve" smooth="yes"/>
      <point x="346" y="-3"/>
      <point x="396" y="13"/>
      <point x="437" y="44" type="curve"/>
      <point x="437" y="1" type="line" smooth="yes"/>
      <point x="437" y="-67"/>
      <point x="395" y="-103"/>
      <point x="313" y="-103" type="curve" smooth="yes"/>
      <point x="258" y="-103"/>
      <point x="204" y="-89"/>
      <point x="147" y="-61" type="curve"/>
      <point x="99" y="-168" type="line"/>
      <point x="160" y="-199"/>
      <point x="236" y="-215"/>
      <point x="316" y="-215" type="curve"/>
      <point x="483" y="-215"/>
      <point x="574" y="-138"/>
      <point x="574" y="0" type="curve" smooth="yes"/>
      <point x="574" y="521" type="line"/>
      <point x="439" y="521" type="line"/>
      <point x="439" y="487" type="line"/>
      <point x="398" y="514"/>
      <point x="350" y="529"/>
      <point x="298" y="529" type="curve" smooth="yes"/>
      <point x="148" y="529"/>
      <point x="30" y="412"/>
      <point x="30" y="264" type="curve" smooth="yes"/>
      <point x="30" y="115"/>
      <point x="147" y="-3"/>
    </contour>
    <contour>
      <point x="165" y="264" type="curve" smooth="yes"/>
      <point x="165" y="347"/>
      <point x="231" y="412"/>
      <point x="316" y="412" type="curve" smooth="yes"/>
      <point x="363" y="412"/>
      <point x="407" y="394"/>
      <point x="437" y="365" type="curve"/>
      <point x="437" y="160" type="line"/>
      <point x="406" y="130"/>
      <point x="364" y="113"/>
      <point x="315" y="113" type="curve" smooth="yes"/>
      <point x="230" y="113"/>
      <point x="165" y="179"/>
    </contour>
  </outline>
</glyph>
<glyph name="j" format="2">
  <advance width="244"/>
  <unicode hex="006A"/>
  <outline>
    <contour>
      <point x="122" y="583" type="curve" smooth="yes"/>
      <point x="165" y="583"/>
      <point x="200" y="618"/>
      <point x="200" y="661" type="curve" smooth="yes"/>
      <point x="200" y="704"/>
      <point x="165" y="739"/>
      <point x="122" y="739" type="curve" smooth="yes"/>
      <point x="79" y="739"/>
      <point x="44" y="704"/>
      <point x="44" y="661" type="curve" smooth="yes"/>
      <point x="44" y="618"/>
      <point x="79" y="583"/>
    </contour>
    <contour>
      <point x="22" y="-215" type="curve"/>
      <point x="129" y="-215"/>
      <point x="191" y="-159"/>
      <point x="191" y="-60" type="curve" smooth="yes"/>
      <point x="191" y="521" type="line"/>
      <point x="54" y="521" type="line"/>
      <point x="54" y="-52" type="line" smooth="yes"/>
      <point x="54" y="-89"/>
      <point x="36" y="-105"/>
      <point x="-5" y="-105" type="curve"/>
      <point x="-23" y="-105"/>
      <point x="-35" y="-104"/>
      <point x="-50" y="-101" type="curve"/>
      <point x="-50" y="-206" type="line"/>
      <point x="-34" y="-212"/>
      <point x="-4" y="-215"/>
    </contour>
  </outline>
</glyph>
<glyph name="p" format="2">
  <advance width="632"/>
  <unicode hex="0070"/>
  <outline>
    <contour>
      <point x="54" y="-209" type="line"/>
      <point x="191" y="-209" type="line"/>
      <point x="191" y="34" type="line"/>
      <point x="232" y="7"/>
      <point x="282" y="-7"/>
      <point x="333" y="-7" type="curve"/>
      <point x="484" y="-7"/>
      <point x="602" y="110"/>
      <point x="602" y="260" type="curve" smooth="yes"/>
      <point x="602" y="410"/>
      <point x="485" y="528"/>
      <point x="337" y="528" type="curve"/>
      <point x="282" y="528"/>
      <point x="231" y="511"/>
      <point x="189" y="478" type="curve"/>
      <point x="189" y="521" type="line"/>
      <point x="54" y="521" type="line"/>
    </contour>
    <contour>
      <point x="315" y="411" type="curve"/>
      <point x="400" y="411"/>
      <point x="467" y="346"/>
      <point x="467" y="260" type="curve" smooth="yes"/>
      <point x="467" y="174"/>
      <point x="401" y="109"/>
      <point x="315" y="109" type="curve"/>
      <point x="266" y="109"/>
      <point x="221" y="127"/>
      <point x="191" y="157" type="curve"/>
      <point x="191" y="362" type="line"/>
      <point x="222" y="394"/>
      <point x="265" y="411"/>
    </contour>
  </outline>
</glyph>
<glyph name="q" format="2">
  <advance width="632"/>
  <unicode hex="0071"/>
  <outline>
    <contour>
      <point x="295" y="-7" type="curve"/>
      <point x="349" y="-7"/>
      <point x="400" y="10"/>
      <point x="441" y="41" type="curve"/>
      <point x="441" y="-209" type="line"/>
      <point x="578" y="-209" type="line"/>
      <point x="578" y="521" type="line"/>
      <point x="443" y="521" type="line"/>
      <point x="443" y="486" type="line"/>
      <point x="402" y="514"/>
      <point x="351" y="528"/>
      <point x="299" y="528" type="curve"/>
      <point x="148" y="528"/>
      <point x="30" y="411"/>
      <point x="30" y="261" type="curve" smooth="yes"/>
      <point x="30" y="111"/>
      <point x="147" y="-7"/>
    </contour>
    <contour>
      <point x="165" y="261" type="curve" smooth="yes"/>
      <point x="165" y="347"/>
      <point x="230" y="412"/>
      <point x="317" y="412" type="curve"/>
      <point x="366" y="412"/>
      <point x="411" y="394"/>
      <point x="441" y="363" type="curve"/>
      <point x="441" y="160" type="line"/>
      <point x="410" y="128"/>
      <point x="368" y="110"/>
      <point x="317" y="110" type="curve"/>
      <point x="231" y="110"/>
      <point x="165" y="176"/>
    </contour>
  </outline>
</glyph>
<glyph name="r" format="2">
  <advance width="407"/>
  <unicode hex="0072"/>
  <anchor x="231" y="521" name="top"/>
  <anchor x="119" y="0" name="bottom"/>
  <outline>
    <contour>
      <point x="54" y="0" type="line"/>
      <point x="191" y="0" type="line"/>
      <point x="191" y="337" type="line"/>
      <point x="217" y="388"/>
      <point x="264" y="415"/>
      <point x="317" y="415" type="curve"/>
      <point x="342" y="415"/>
      <point x="367" y="410"/>
      <point x="387" y="401" type="curve"/>
      <point x="387" y="521" type="line"/>
      <point x="373" y="529"/>
      <point x="357" y="532"/>
      <point x="330" y="533" type="curve"/>
      <point x="272" y="533"/>
      <point x="224" y="509"/>
      <point x="191" y="464" type="curve"/>
      <point x="191" y="521" type="line"/>
      <point x="54" y="521" type="line"/>
    </contour>
  </outline>
</glyph>
<glyph name="s" format="2">
  <advance width="491"/>
  <unicode hex="0073"/>
  <note>
Version created Fri Aug  3 17:49:29 2018
</note>
  <anchor x="241" y="521" name="top"/>
  <anchor x="250" y="0" name="bottom"/>
  <outline>
    <contour>
      <point x="10" y="62" type="line"/>
      <point x="69" y="15"/>
      <point x="154" y="-10"/>
      <point x="249" y="-10" type="curve"/>
      <point x="380" y="-10"/>
      <point x="477" y="64"/>
      <point x="477" y="162" type="curve" smooth="yes"/>
      <point x="477" y="243"/>
      <point x="420" y="296"/>
      <point x="318" y="311" type="curve" smooth="yes"/>
      <point x="218" y="326" type="line" smooth="yes"/>
      <point x="167" y="333"/>
      <point x="147" y="347"/>
      <point x="147" y="375" type="curve"/>
      <point x="147" y="406"/>
      <point x="179" y="426"/>
      <point x="229" y="426" type="curve"/>
      <point x="282" y="426"/>
      <point x="333" y="410"/>
      <point x="390" y="376" type="curve"/>
      <point x="456" y="464" type="line"/>
      <point x="391" y="507"/>
      <point x="318" y="529"/>
      <point x="242" y="529" type="curve"/>
      <point x="109" y="529"/>
      <point x="25" y="465"/>
      <point x="25" y="364" type="curve" smooth="yes"/>
      <point x="25" y="280"/>
      <point x="80" y="229"/>
      <point x="183" y="213" type="curve" smooth="yes"/>
      <point x="283" y="198" type="line" smooth="yes"/>
      <point x="328" y="191"/>
      <point x="348" y="176"/>
      <point x="348" y="149" type="curve" smooth="yes"/>
      <point x="348" y="116"/>
      <point x="308" y="94"/>
      <point x="247" y="94" type="curve" smooth="yes"/>
      <point x="192" y="94"/>
      <point x="139" y="113"/>
      <point x="78" y="153" type="curve"/>
    </contour>
  </outline>
</glyph>
<glyph name="t" format="2">
  <advance width="424"/>
  <unicode hex="0074"/>
  <anchor x="275" y="0" name="bottom"/>
  <outline>
    <contour>
      <point x="125" y="147" type="line"/>
      <point x="125" y="45"/>
      <point x="185" y="-8"/>
      <point x="301" y="-8" type="curve"/>
      <point x="331" y="-8"/>
      <point x="378" y="-1"/>
      <point x="407" y="8" type="curve"/>
      <point x="407" y="120" type="line"/>
      <point x="380" y="111"/>
      <point x="360" y="108"/>
      <point x="334" y="108" type="curve"/>
      <point x="281" y="108"/>
      <point x="262" y="126"/>
      <point x="262" y="175" type="curve" smooth="yes"/>
      <point x="262" y="406" type="line"/>
      <point x="410" y="406" type="line"/>
      <point x="410" y="521" type="line"/>
      <point x="262" y="521" type="line"/>
      <point x="262" y="685" type="line"/>
      <point x="125" y="654" type="line"/>
      <point x="125" y="521" type="line"/>
      <point x="18" y="521" type="line"/>
      <point x="18" y="406" type="line"/>
      <point x="125" y="406" type="line"/>
    </contour>
  </outline>
</glyph>
<glyph name="u" format="2">
  <advance width="593"/>
  <unicode hex="0075"/>
  <anchor x="297" y="521" name="top"/>
  <anchor x="541" y="0" name="bottom"/>
  <outline>
    <contour>
      <point x="187" y="521" type="line"/>
      <point x="50" y="521" type="line"/>
      <point x="50" y="198" type="line" smooth="yes"/>
      <point x="50" y="76"/>
      <point x="135" y="-10"/>
      <point x="256" y="-10" type="curve"/>
      <point x="313" y="-10"/>
      <point x="363" y="8"/>
      <point x="403" y="42" type="curve"/>
      <point x="403" y="0" type="line"/>
      <point x="540" y="0" type="line"/>
      <point x="540" y="521" type="line"/>
      <point x="403" y="521" type="line"/>
      <point x="403" y="160" type="line"/>
      <point x="379" y="126"/>
      <point x="342" y="108"/>
      <point x="295" y="108" type="curve" smooth="yes"/>
      <point x="230" y="108"/>
      <point x="187" y="151"/>
      <point x="187" y="218" type="curve"/>
    </contour>
  </outline>
</glyph>
<glyph name="x" format="2">
  <advance width="555"/>
  <unicode hex="0078"/>
  <outline>
    <contour>
      <point x="-2" y="0" type="line"/>
      <point x="151" y="0" type="line"/>
      <point x="274" y="166" type="line"/>
      <point x="397" y="0" type="line"/>
      <point x="557" y="0" type="line"/>
      <point x="353" y="267" type="line"/>
      <point x="545" y="521" type="line"/>
      <point x="391" y="521" type="line"/>
      <point x="277" y="366" type="line"/>
      <point x="162" y="521" type="line"/>
      <point x="3" y="521" type="line"/>
      <point x="198" y="265" type="line"/>
    </contour>
  </outline>
</glyph>
<glyph name="y" format="2">
  <advance width="576"/>
  <unicode hex="0079"/>
  <anchor x="287" y="521" name="top"/>
  <outline>
    <contour>
      <point x="195" y="-24" type="line" smooth="yes"/>
      <point x="175" y="-71"/>
      <point x="141" y="-95"/>
      <point x="92" y="-95" type="curve"/>
      <point x="71" y="-95"/>
      <point x="58" y="-94"/>
      <point x="44" y="-91" type="curve"/>
      <point x="44" y="-209" type="line"/>
      <point x="58" y="-213"/>
      <point x="81" y="-215"/>
      <point x="105" y="-215" type="curve"/>
      <point x="219" y="-215"/>
      <point x="282" y="-167"/>
      <point x="336" y="-41" type="curve" smooth="yes"/>
      <point x="576" y="521" type="line"/>
      <point x="428" y="521" type="line"/>
      <point x="280" y="166" type="line"/>
      <point x="151" y="521" type="line"/>
      <point x="0" y="521" type="line"/>
      <point x="203" y="-5" type="line"/>
    </contour>
  </outline>
</glyph>
<glyph name="sterling" format="2">
  <advance width="648"/>
  <unicode hex="00A3"/>
  <anchor x="104" y="-11" name="top"/>
  <anchor x="329" y="-11" name="top"/>
  <anchor x="252" y="689" name="bottom"/>
  <outline>
    <contour>
      <point x="220" y="25" type="curve" smooth="yes"/>
      <point x="398" y="-17" type="line" smooth="yes"/>
      <point x="424" y="-24"/>
      <point x="449" y="-27"/>
      <point x="471" y="-27" type="curve" smooth="yes"/>
      <point x="545" y="-27"/>
      <point x="599" y="9"/>
      <point x="640" y="83" type="curve"/>
      <point x="540" y="143" type="line"/>
      <point x="519" y="103"/>
      <point x="493" y="84"/>
      <point x="454" y="84" type="curve" smooth="yes"/>
      <point x="442" y="84"/>
      <point x="429" y="85"/>
      <point x="415" y="89" type="curve" smooth="yes"/>
      <point x="251" y="127" type="line"/>
      <point x="270" y="148"/>
      <point x="279" y="175"/>
      <point x="279" y="207" type="curve" smooth="yes"/>
      <point x="279" y="219"/>
      <point x="277.80795573052984" y="231.9602213473508"/>
      <point x="267" y="286" type="curve"/>
      <point x="438" y="286" type="line"/>
      <point x="438" y="375" type="line"/>
      <point x="250" y="375" type="line"/>
      <point x="234.7554820771455" y="449.95221312070134"/>
      <point x="233" y="466"/>
      <point x="233" y="480" type="curve" smooth="yes"/>
      <point x="233" y="554"/>
      <point x="276" y="597"/>
      <point x="353" y="597" type="curve"/>
      <point x="422" y="597"/>
      <point x="465" y="561"/>
      <point x="488" y="491" type="curve"/>
      <point x="601" y="528" type="line"/>
      <point x="565" y="648"/>
      <point x="480" y="710"/>
      <point x="348" y="710" type="curve"/>
      <point x="200" y="710"/>
      <point x="105" y="617"/>
      <point x="105" y="480" type="curve" smooth="yes"/>
      <point x="105" y="459"/>
      <point x="107.42162272616831" y="437.89188636915844"/>
      <point x="120" y="375" type="curve"/>
      <point x="40" y="375" type="line"/>
      <point x="40" y="286" type="line"/>
      <point x="137" y="286" type="line"/>
      <point x="155.19292787840544" y="195.03536060797276"/>
      <point x="156" y="189"/>
      <point x="156" y="183" type="curve" smooth="yes"/>
      <point x="156" y="165"/>
      <point x="150" y="150"/>
      <point x="139" y="139" type="curve"/>
      <point x="75" y="132"/>
      <point x="27" y="97"/>
      <point x="-10" y="29" type="curve"/>
      <point x="93" y="-35" type="line"/>
      <point x="115" y="10"/>
      <point x="142" y="30"/>
      <point x="182" y="30" type="curve" smooth="yes"/>
      <point x="193" y="30"/>
      <point x="206" y="28"/>
    </contour>
  </outline>
</glyph>
<glyph name="yen" format="2">
  <advance width="710"/>
  <unicode hex="00A5"/>
  <outline>
    <contour>
      <point x="106" y="214" type="line"/>
      <point x="106" y="142" type="line"/>
      <point x="280" y="142" type="line"/>
      <point x="280" y="0" type="line"/>
      <point x="425" y="0" type="line"/>
      <point x="425" y="142" type="line"/>
      <point x="604" y="142" type="line"/>
      <point x="604" y="214" type="line"/>
      <point x="425" y="214" type="line"/>
      <point x="425" y="267" type="line"/>
      <point x="430" y="274" type="line"/>
      <point x="604" y="274" type="line"/>
      <point x="604" y="347" type="line"/>
      <point x="478" y="347" type="line"/>
      <point x="712" y="700" type="line"/>
      <point x="554" y="700" type="line"/>
      <point x="357" y="396" type="line"/>
      <point x="161" y="700" type="line"/>
      <point x="-6" y="700" type="line"/>
      <point x="228" y="347" type="line"/>
      <point x="106" y="347" type="line"/>
      <point x="106" y="274" type="line"/>
      <point x="276" y="274" type="line"/>
      <point x="280" y="268" type="line"/>
      <point x="280" y="214" type="line"/>
    </contour>
  </outline>
</glyph>
<glyph name="uni00A6" format="2">
  <advance width="324"/>
  <unicode hex="00A6"/>
  <outline>
    <contour>
      <point x="226" y="284" type="line"/>
      <point x="226" y="700" type="line"/>
      <point x="99" y="700" type="line"/>
      <point x="99" y="284" type="line"/>
    </contour>
    <contour>
      <point x="99" y="-212" type="line"/>
      <point x="226" y="-212" type="line"/>
      <point x="226" y="204" type="line"/>
      <point x="99" y="204" type="line"/>
    </contour>
  </outline>
</glyph>
<glyph name="section" format="2">
  <advance width="579"/>
  <unicode hex="00A7"/>
  <outline>
    <contour>
      <point x="478" y="100" type="curve" smooth="yes"/>
      <point x="478" y="135"/>
      <point x="468" y="164"/>
      <point x="446" y="187" type="curve"/>
      <point x="506" y="212"/>
      <point x="541" y="259"/>
      <point x="541" y="321" type="curve" smooth="yes"/>
      <point x="541" y="396"/>
      <point x="501" y="435"/>
      <point x="388" y="473" type="curve" smooth="yes"/>
      <point x="284" y="508" type="line" smooth="yes"/>
      <point x="241" y="522"/>
      <point x="224" y="539"/>
      <point x="224" y="565" type="curve" smooth="yes"/>
      <point x="224" y="600"/>
      <point x="252" y="621"/>
      <point x="299" y="621" type="curve" smooth="yes"/>
      <point x="342" y="621"/>
      <point x="392" y="605"/>
      <point x="449" y="572" type="curve"/>
      <point x="501" y="654" type="line"/>
      <point x="438" y="691"/>
      <point x="369" y="710"/>
      <point x="301" y="710" type="curve" smooth="yes"/>
      <point x="180" y="710"/>
      <point x="100" y="648"/>
      <point x="100" y="554" type="curve" smooth="yes"/>
      <point x="100" y="519"/>
      <point x="111" y="490"/>
      <point x="134" y="467" type="curve"/>
      <point x="74" y="443"/>
      <point x="38" y="396"/>
      <point x="38" y="335" type="curve" smooth="yes"/>
      <point x="38" y="259"/>
      <point x="77" y="220"/>
      <point x="190" y="183" type="curve" smooth="yes"/>
      <point x="296" y="148" type="line" smooth="yes"/>
      <point x="339" y="133"/>
      <point x="355" y="116"/>
      <point x="355" y="90" type="curve" smooth="yes"/>
      <point x="355" y="56"/>
      <point x="327" y="35"/>
      <point x="281" y="35" type="curve" smooth="yes"/>
      <point x="237" y="34"/>
      <point x="188" y="50"/>
      <point x="131" y="84" type="curve"/>
      <point x="78" y="2" type="line"/>
      <point x="138" y="-34"/>
      <point x="208" y="-54"/>
      <point x="279" y="-54" type="curve" smooth="yes"/>
      <point x="399" y="-54"/>
      <point x="478" y="8"/>
    </contour>
    <contour>
      <point x="221" y="283" type="line" smooth="yes"/>
      <point x="171" y="300"/>
      <point x="152" y="319"/>
      <point x="152" y="350" type="curve" smooth="yes"/>
      <point x="152" y="385"/>
      <point x="179" y="410"/>
      <point x="222" y="416" type="curve"/>
      <point x="358" y="373" type="line" smooth="yes"/>
      <point x="406" y="358"/>
      <point x="427" y="336"/>
      <point x="427" y="305" type="curve" smooth="yes"/>
      <point x="427" y="270"/>
      <point x="400" y="245"/>
      <point x="357" y="239" type="curve"/>
    </contour>
  </outline>
</glyph>
<glyph name="ordfeminine" format="2">
  <advance width="438"/>
  <unicode hex="00AA"/>
  <outline>
    <contour>
      <point x="172" y="301" type="curve" smooth="yes"/>
      <point x="216" y="301"/>
      <point x="251" y="311"/>
      <point x="284" y="334" type="curve"/>
      <point x="284" y="307" type="line"/>
      <point x="391" y="307" type="line"/>
      <point x="391" y="561" type="line"/>
      <point x="391" y="654"/>
      <point x="329" y="708"/>
      <point x="222" y="708" type="curve" smooth="yes"/>
      <point x="165" y="708"/>
      <point x="108" y="694"/>
      <point x="45" y="665" type="curve"/>
      <point x="84" y="585" type="line"/>
      <point x="135" y="607"/>
      <point x="172" y="617"/>
      <point x="203" y="617" type="curve" smooth="yes"/>
      <point x="257" y="617"/>
      <point x="284" y="595"/>
      <point x="284" y="551" type="curve"/>
      <point x="284" y="526" type="line"/>
      <point x="254" y="535"/>
      <point x="222" y="540"/>
      <point x="190" y="540" type="curve" smooth="yes"/>
      <point x="88" y="540"/>
      <point x="29" y="496"/>
      <point x="29" y="422" type="curve" smooth="yes"/>
      <point x="29" y="350"/>
      <point x="87" y="301"/>
    </contour>
    <contour>
      <point x="132" y="424" type="curve" smooth="yes"/>
      <point x="132" y="452"/>
      <point x="159" y="469"/>
      <point x="204" y="469" type="curve" smooth="yes"/>
      <point x="233" y="469"/>
      <point x="259" y="465"/>
      <point x="284" y="457" type="curve"/>
      <point x="284" y="401" type="line"/>
      <point x="261" y="385"/>
      <point x="233" y="378"/>
      <point x="201" y="378" type="curve"/>
      <point x="159" y="378"/>
      <point x="132" y="396"/>
    </contour>
  </outline>
</glyph>
<glyph name="uni00AC" format="2">
  <advance width="558"/>
  <unicode hex="00AC"/>
  <outline>
    <contour>
      <point x="41" y="343" type="line"/>
      <point x="41" y="227" type="line"/>
      <point x="383" y="227" type="line"/>
      <point x="383" y="0" type="line"/>
      <point x="517" y="0" type="line"/>
      <point x="517" y="343" type="line"/>
    </contour>
  </outline>
</glyph>
<glyph name="macron" format="2">
  <advance width="517"/>
  <unicode hex="00AF"/>
  <anchor x="258" y="521" name="_top"/>
  <outline>
    <contour>
      <point x="422" y="713" type="line"/>
      <point x="102" y="713" type="line"/>
      <point x="102" y="623" type="line"/>
      <point x="422" y="623" type="line"/>
    </contour>
  </outline>
</glyph>
<glyph name="degree" format="2">
  <advance width="375"/>
  <unicode hex="00B0"/>
  <outline>
    <contour>
      <point x="188" y="418" type="curve" smooth="yes"/>
      <point x="268" y="418"/>
      <point x="333" y="485"/>
      <point x="333" y="566" type="curve" smooth="yes"/>
      <point x="333" y="645"/>
      <point x="268" y="710"/>
      <point x="188" y="710" type="curve" smooth="yes"/>
      <point x="106" y="710"/>
      <point x="42" y="645"/>
      <point x="42" y="566" type="curve" smooth="yes"/>
      <point x="42" y="484"/>
      <point x="106" y="418"/>
    </contour>
    <contour>
      <point x="188" y="492" type="curve" smooth="yes"/>
      <point x="148" y="492"/>
      <point x="116" y="525"/>
      <point x="116" y="566" type="curve"/>
      <point x="116" y="605"/>
      <point x="148" y="637"/>
      <point x="188" y="637" type="curve" smooth="yes"/>
      <point x="226" y="637"/>
      <point x="258" y="605"/>
      <point x="258" y="566" type="curve" smooth="yes"/>
      <point x="258" y="525"/>
      <point x="226" y="492"/>
    </contour>
  </outline>
</glyph>
<glyph name="acute" format="2">
  <advance width="517"/>
  <unicode hex="00B4"/>
  <anchor x="224" y="521" name="_top"/>
  <outline>
    <contour>
      <point x="244" y="738" type="line"/>
      <point x="154" y="608" type="line"/>
      <point x="265" y="608" type="line"/>
      <point x="400" y="738" type="line"/>
    </contour>
  </outline>
</glyph>
<glyph name="uni00B5" format="2">
  <advance width="593"/>
  <unicode hex="00B5"/>
  <outline>
    <contour>
      <point x="187" y="521" type="line"/>
      <point x="50" y="521" type="line"/>
      <point x="50" y="-209" type="line"/>
      <point x="187" y="-209" type="line"/>
      <point x="187" y="4" type="line"/>
      <point x="208" y="-5"/>
      <point x="231" y="-10"/>
      <point x="256" y="-10" type="curve"/>
      <point x="314" y="-10"/>
      <point x="364" y="8"/>
      <point x="403" y="42" type="curve"/>
      <point x="403" y="0" type="line"/>
      <point x="540" y="0" type="line"/>
      <point x="540" y="521" type="line"/>
      <point x="403" y="521" type="line"/>
      <point x="403" y="160" type="line"/>
      <point x="378" y="127"/>
      <point x="342" y="108"/>
      <point x="295" y="108" type="curve" smooth="yes"/>
      <point x="230" y="108"/>
      <point x="187" y="151"/>
      <point x="187" y="218" type="curve"/>
    </contour>
  </outline>
</glyph>
<glyph name="cedilla" format="2">
  <advance width="517"/>
  <unicode hex="00B8"/>
  <anchor x="290" y="0" name="_bottom"/>
  <outline>
    <contour>
      <point x="403" y="-135" type="curve"/>
      <point x="403" y="-85"/>
      <point x="366" y="-51"/>
      <point x="308" y="-46" type="curve"/>
      <point x="322" y="0" type="line"/>
      <point x="255" y="0" type="line"/>
      <point x="227" y="-97" type="line"/>
      <point x="269" y="-97" type="line" smooth="yes"/>
      <point x="302" y="-97"/>
      <point x="323" y="-111"/>
      <point x="323" y="-134" type="curve"/>
      <point x="323" y="-158"/>
      <point x="304" y="-172"/>
      <point x="269" y="-172" type="curve"/>
      <point x="241" y="-172"/>
      <point x="215" y="-162"/>
      <point x="191" y="-143" type="curve"/>
      <point x="146" y="-191" type="line"/>
      <point x="180" y="-221"/>
      <point x="221" y="-236"/>
      <point x="271" y="-236" type="curve"/>
      <point x="347" y="-236"/>
      <point x="403" y="-192"/>
    </contour>
  </outline>
</glyph>
<glyph name="ordmasculine" format="2">
  <advance width="483"/>
  <unicode hex="00BA"/>
  <outline>
    <contour>
      <point x="29" y="503" type="curve" smooth="yes"/>
      <point x="29" y="390"/>
      <point x="121" y="300"/>
      <point x="239" y="300" type="curve" smooth="yes"/>
      <point x="358" y="300"/>
      <point x="450" y="390"/>
      <point x="450" y="503" type="curve" smooth="yes"/>
      <point x="450" y="618"/>
      <point x="358" y="708"/>
      <point x="239" y="708" type="curve" smooth="yes"/>
      <point x="122" y="708"/>
      <point x="29" y="618"/>
    </contour>
    <contour>
      <point x="345" y="503" type="curve" smooth="yes"/>
      <point x="345" y="442"/>
      <point x="299" y="394"/>
      <point x="239" y="394" type="curve" smooth="yes"/>
      <point x="181" y="394"/>
      <point x="135" y="442"/>
      <point x="135" y="503" type="curve" smooth="yes"/>
      <point x="135" y="565"/>
      <point x="181" y="613"/>
      <point x="239" y="613" type="curve" smooth="yes"/>
      <point x="299" y="613"/>
      <point x="345" y="565"/>
    </contour>
  </outline>
</glyph>
<glyph name="Ccedilla" format="2">
  <advance width="718"/>
  <unicode hex="00C7"/>
  <outline>
    <contour>
      <point x="413" y="124" type="curve"/>
      <point x="283" y="124"/>
      <point x="185" y="222"/>
      <point x="185" y="350" type="curve" smooth="yes"/>
      <point x="185" y="480"/>
      <point x="282" y="578"/>
      <point x="409" y="578" type="curve" smooth="yes"/>
      <point x="484" y="578"/>
      <point x="552" y="545"/>
      <point x="602" y="483" type="curve"/>
      <point x="700" y="580" type="line"/>
      <point x="635" y="660"/>
      <point x="522" y="711"/>
      <point x="409" y="711" type="curve" smooth="yes"/>
      <point x="199" y="711"/>
      <point x="36" y="554"/>
      <point x="36" y="350" type="curve" smooth="yes"/>
      <point x="36" y="159"/>
      <point x="179" y="9"/>
      <point x="372" y="-8" type="curve"/>
      <point x="346" y="-97" type="line"/>
      <point x="388" y="-97" type="line" smooth="yes"/>
      <point x="421" y="-97"/>
      <point x="442" y="-111"/>
      <point x="442" y="-134" type="curve"/>
      <point x="442" y="-158"/>
      <point x="423" y="-172"/>
      <point x="388" y="-172" type="curve"/>
      <point x="360" y="-172"/>
      <point x="334" y="-162"/>
      <point x="310" y="-143" type="curve"/>
      <point x="265" y="-191" type="line"/>
      <point x="299" y="-221"/>
      <point x="340" y="-236"/>
      <point x="390" y="-236" type="curve"/>
      <point x="466" y="-236"/>
      <point x="522" y="-192"/>
      <point x="522" y="-135" type="curve"/>
      <point x="522" y="-85"/>
      <point x="485" y="-51"/>
      <point x="427" y="-46" type="curve"/>
      <point x="438" y="-9" type="line"/>
      <point x="538" y="-1"/>
      <point x="635" y="47"/>
      <point x="696" y="119" type="curve"/>
      <point x="601" y="213" type="line"/>
      <point x="552" y="155"/>
      <point x="487" y="124"/>
    </contour>
  </outline>
</glyph>
<glyph name="multiply" format="2">
  <advance width="542"/>
  <unicode hex="00D7"/>
  <outline>
    <contour>
      <point x="120" y="141" type="line"/>
      <point x="270" y="293" type="line"/>
      <point x="420" y="140" type="line"/>
      <point x="487" y="207" type="line"/>
      <point x="336" y="360" type="line"/>
      <point x="486" y="512" type="line"/>
      <point x="421" y="577" type="line"/>
      <point x="272" y="425" type="line"/>
      <point x="121" y="578" type="line"/>
      <point x="55" y="511" type="line"/>
      <point x="206" y="358" type="line"/>
      <point x="56" y="206" type="line"/>
    </contour>
  </outline>
</glyph>
<glyph name="ccedilla" format="2">
  <advance width="532"/>
  <unicode hex="00E7"/>
  <outline>
    <contour>
      <point x="309" y="110" type="curve" smooth="yes"/>
      <point x="228" y="110"/>
      <point x="166" y="174"/>
      <point x="166" y="260" type="curve" smooth="yes"/>
      <point x="166" y="346"/>
      <point x="227" y="412"/>
      <point x="306" y="412" type="curve" smooth="yes"/>
      <point x="355" y="412"/>
      <point x="397" y="391"/>
      <point x="435" y="349" type="curve"/>
      <point x="519" y="438" type="line"/>
      <point x="465" y="497"/>
      <point x="386" y="531"/>
      <point x="303" y="531" type="curve"/>
      <point x="149" y="531"/>
      <point x="30" y="412"/>
      <point x="30" y="260" type="curve" smooth="yes"/>
      <point x="30" y="120"/>
      <point x="131" y="9"/>
      <point x="268" y="-8" type="curve"/>
      <point x="242" y="-97" type="line"/>
      <point x="284" y="-97" type="line" smooth="yes"/>
      <point x="317" y="-97"/>
      <point x="338" y="-111"/>
      <point x="338" y="-134" type="curve"/>
      <point x="338" y="-158"/>
      <point x="319" y="-172"/>
      <point x="284" y="-172" type="curve"/>
      <point x="256" y="-172"/>
      <point x="230" y="-162"/>
      <point x="206" y="-143" type="curve"/>
      <point x="161" y="-191" type="line"/>
      <point x="195" y="-221"/>
      <point x="236" y="-236"/>
      <point x="286" y="-236" type="curve"/>
      <point x="362" y="-236"/>
      <point x="418" y="-192"/>
      <point x="418" y="-135" type="curve"/>
      <point x="418" y="-85"/>
      <point x="381" y="-51"/>
      <point x="323" y="-46" type="curve"/>
      <point x="335" y="-8" type="line"/>
      <point x="403" y="-1"/>
      <point x="468" y="32"/>
      <point x="515" y="83" type="curve"/>
      <point x="433" y="168" type="line"/>
      <point x="396" y="128"/>
      <point x="356" y="110"/>
    </contour>
  </outline>
</glyph>
<glyph name="eth" format="2">
  <advance width="597"/>
  <unicode hex="00F0"/>
  <outline>
    <contour>
      <point x="244" y="512" type="line"/>
      <point x="332" y="568" type="line"/>
      <point x="373" y="526"/>
      <point x="403" y="477"/>
      <point x="414" y="428" type="curve"/>
      <point x="380" y="463"/>
      <point x="332" y="483"/>
      <point x="271" y="483" type="curve" smooth="yes"/>
      <point x="141" y="483"/>
      <point x="30" y="374"/>
      <point x="30" y="246" type="curve" smooth="yes"/>
      <point x="30" y="102"/>
      <point x="143" y="-9"/>
      <point x="288" y="-9" type="curve" smooth="yes"/>
      <point x="457" y="-9"/>
      <point x="562" y="115"/>
      <point x="562" y="312" type="curve"/>
      <point x="562" y="437"/>
      <point x="517" y="548"/>
      <point x="434" y="634" type="curve"/>
      <point x="515" y="686" type="line"/>
      <point x="464" y="757" type="line"/>
      <point x="366" y="694" type="line"/>
      <point x="331" y="719"/>
      <point x="292" y="741"/>
      <point x="249" y="760" type="curve"/>
      <point x="178" y="668" type="line"/>
      <point x="207" y="657"/>
      <point x="235" y="643"/>
      <point x="260" y="626" type="curve"/>
      <point x="193" y="583" type="line"/>
    </contour>
    <contour>
      <point x="292" y="111" type="curve" smooth="yes"/>
      <point x="220" y="111"/>
      <point x="162" y="169"/>
      <point x="162" y="241" type="curve" smooth="yes"/>
      <point x="162" y="313"/>
      <point x="220" y="370"/>
      <point x="292" y="370" type="curve" smooth="yes"/>
      <point x="363" y="370"/>
      <point x="420" y="313"/>
      <point x="420" y="241" type="curve" smooth="yes"/>
      <point x="420" y="169"/>
      <point x="363" y="111"/>
    </contour>
  </outline>
</glyph>
<glyph name="divide" format="2">
  <advance width="550"/>
  <unicode hex="00F7"/>
  <outline>
    <contour>
      <point x="275" y="498" type="curve" smooth="yes"/>
      <point x="320" y="498"/>
      <point x="356" y="535"/>
      <point x="356" y="579" type="curve" smooth="yes"/>
      <point x="356" y="624"/>
      <point x="320" y="660"/>
      <point x="275" y="660" type="curve" smooth="yes"/>
      <point x="231" y="660"/>
      <point x="194" y="624"/>
      <point x="194" y="579" type="curve" smooth="yes"/>
      <point x="194" y="535"/>
      <point x="231" y="498"/>
    </contour>
    <contour>
      <point x="46" y="306" type="line"/>
      <point x="504" y="306" type="line"/>
      <point x="504" y="412" type="line"/>
      <point x="46" y="412" type="line"/>
    </contour>
    <contour>
      <point x="275" y="57" type="curve" smooth="yes"/>
      <point x="320" y="57"/>
      <point x="356" y="93"/>
      <point x="356" y="138" type="curve" smooth="yes"/>
      <point x="356" y="182"/>
      <point x="320" y="219"/>
      <point x="275" y="219" type="curve" smooth="yes"/>
      <point x="231" y="219"/>
      <point x="194" y="182"/>
      <point x="194" y="138" type="curve" smooth="yes"/>
      <point x="194" y="93"/>
      <point x="231" y="57"/>
    </contour>
  </outline>
</glyph>
<glyph name="oslash" format="2">
  <advance width="616"/>
  <unicode hex="00F8"/>
  <outline>
    <contour>
      <point x="46" y="0" type="line"/>
      <point x="139" y="0" type="line"/>
      <point x="163" y="29" type="line"/>
      <point x="205" y="4"/>
      <point x="254" y="-10"/>
      <point x="308" y="-10" type="curve" smooth="yes"/>
      <point x="464" y="-10"/>
      <point x="586" y="108"/>
      <point x="586" y="260" type="curve" smooth="yes"/>
      <point x="586" y="334"/>
      <point x="557" y="400"/>
      <point x="510" y="448" type="curve"/>
      <point x="570" y="521" type="line"/>
      <point x="476" y="521" type="line"/>
      <point x="453" y="493" type="line"/>
      <point x="411" y="517"/>
      <point x="361" y="531"/>
      <point x="308" y="531" type="curve" smooth="yes"/>
      <point x="152" y="531"/>
      <point x="30" y="412"/>
      <point x="30" y="260" type="curve" smooth="yes"/>
      <point x="30" y="186"/>
      <point x="59" y="121"/>
      <point x="106" y="73" type="curve"/>
    </contour>
    <contour>
      <point x="164" y="260" type="curve" smooth="yes"/>
      <point x="164" y="346"/>
      <point x="228" y="412"/>
      <point x="308" y="412" type="curve" smooth="yes"/>
      <point x="332" y="412"/>
      <point x="354" y="406"/>
      <point x="373" y="396" type="curve"/>
      <point x="189" y="174" type="line"/>
      <point x="173" y="198"/>
      <point x="164" y="228"/>
    </contour>
    <contour>
      <point x="308" y="109" type="curve" smooth="yes"/>
      <point x="284" y="109"/>
      <point x="262" y="115"/>
      <point x="242" y="125" type="curve"/>
      <point x="427" y="348" type="line"/>
      <point x="443" y="323"/>
      <point x="452" y="293"/>
      <point x="452" y="260" type="curve" smooth="yes"/>
      <point x="452" y="176"/>
      <point x="389" y="109"/>
    </contour>
  </outline>
</glyph>
<glyph name="Aogonek" format="2">
  <advance width="732"/>
  <unicode hex="0104"/>
  <outline>
    <contour>
      <point x="-4" y="0" type="line"/>
      <point x="147" y="0" type="line"/>
      <point x="219" y="184" type="line"/>
      <point x="508" y="184" type="line"/>
      <point x="579" y="0" type="line"/>
      <point x="658" y="0" type="line"/>
      <point x="594" y="-41"/>
      <point x="566" y="-81"/>
      <point x="566" y="-129" type="curve"/>
      <point x="566" y="-184"/>
      <point x="608" y="-221"/>
      <point x="672" y="-221" type="curve"/>
      <point x="702" y="-221"/>
      <point x="732" y="-212"/>
      <point x="755" y="-199" type="curve"/>
      <point x="736" y="-137" type="line"/>
      <point x="725" y="-145"/>
      <point x="710" y="-149"/>
      <point x="696" y="-149" type="curve"/>
      <point x="665" y="-149"/>
      <point x="646" y="-133"/>
      <point x="646" y="-105" type="curve"/>
      <point x="646" y="-70"/>
      <point x="674" y="-37"/>
      <point x="736" y="0" type="curve"/>
      <point x="452" y="700" type="line"/>
      <point x="284" y="700" type="line"/>
    </contour>
    <contour>
      <point x="264" y="300" type="line"/>
      <point x="365" y="558" type="line"/>
      <point x="464" y="300" type="line"/>
    </contour>
  </outline>
</glyph>
<glyph name="aogonek" format="2">
  <advance width="555"/>
  <unicode hex="0105"/>
  <outline>
    <contour>
      <point x="219" y="-9" type="curve" smooth="yes"/>
      <point x="279" y="-9"/>
      <point x="326" y="5"/>
      <point x="370" y="36" type="curve"/>
      <point x="370" y="0" type="line"/>
      <point x="427" y="0" type="line"/>
      <point x="363" y="-41"/>
      <point x="335" y="-81"/>
      <point x="335" y="-129" type="curve"/>
      <point x="335" y="-184"/>
      <point x="377" y="-221"/>
      <point x="441" y="-221" type="curve"/>
      <point x="471" y="-221"/>
      <point x="501" y="-212"/>
      <point x="524" y="-199" type="curve"/>
      <point x="505" y="-137" type="line"/>
      <point x="494" y="-145"/>
      <point x="479" y="-149"/>
      <point x="465" y="-149" type="curve"/>
      <point x="434" y="-149"/>
      <point x="415" y="-133"/>
      <point x="415" y="-105" type="curve"/>
      <point x="415" y="-70"/>
      <point x="443" y="-37"/>
      <point x="505" y="0" type="curve"/>
      <point x="505" y="338" type="line"/>
      <point x="505" y="461"/>
      <point x="424" y="531"/>
      <point x="283" y="531" type="curve" smooth="yes"/>
      <point x="208" y="531"/>
      <point x="133" y="513"/>
      <point x="51" y="475" type="curve"/>
      <point x="101" y="374" type="line"/>
      <point x="167" y="403"/>
      <point x="216" y="417"/>
      <point x="260" y="417" type="curve" smooth="yes"/>
      <point x="333" y="417"/>
      <point x="370" y="386"/>
      <point x="370" y="326" type="curve"/>
      <point x="370" y="289" type="line"/>
      <point x="329" y="302"/>
      <point x="286" y="309"/>
      <point x="243" y="309" type="curve" smooth="yes"/>
      <point x="109" y="309"/>
      <point x="29" y="250"/>
      <point x="29" y="151" type="curve" smooth="yes"/>
      <point x="29" y="56"/>
      <point x="107" y="-9"/>
    </contour>
    <contour>
      <point x="160" y="154" type="curve" smooth="yes"/>
      <point x="160" y="194"/>
      <point x="197" y="219"/>
      <point x="260" y="219" type="curve" smooth="yes"/>
      <point x="300" y="219"/>
      <point x="336" y="213"/>
      <point x="370" y="200" type="curve"/>
      <point x="370" y="122" type="line"/>
      <point x="338" y="100"/>
      <point x="300" y="89"/>
      <point x="255" y="89" type="curve"/>
      <point x="197" y="89"/>
      <point x="160" y="114"/>
    </contour>
  </outline>
</glyph>
<glyph name="Eogonek" format="2">
  <advance width="645"/>
  <unicode hex="0118"/>
  <outline>
    <contour>
      <point x="63" y="0" type="line"/>
      <point x="527" y="0" type="line"/>
      <point x="463" y="-41"/>
      <point x="435" y="-81"/>
      <point x="435" y="-129" type="curve"/>
      <point x="435" y="-184"/>
      <point x="477" y="-221"/>
      <point x="541" y="-221" type="curve"/>
      <point x="571" y="-221"/>
      <point x="601" y="-212"/>
      <point x="624" y="-199" type="curve"/>
      <point x="605" y="-137" type="line"/>
      <point x="594" y="-145"/>
      <point x="579" y="-149"/>
      <point x="565" y="-149" type="curve"/>
      <point x="534" y="-149"/>
      <point x="515" y="-133"/>
      <point x="515" y="-105" type="curve"/>
      <point x="515" y="-70"/>
      <point x="543" y="-37"/>
      <point x="605" y="0" type="curve"/>
      <point x="605" y="126" type="line"/>
      <point x="208" y="126" type="line"/>
      <point x="208" y="292" type="line"/>
      <point x="467" y="292" type="line"/>
      <point x="467" y="414" type="line"/>
      <point x="208" y="414" type="line"/>
      <point x="208" y="574" type="line"/>
      <point x="601" y="574" type="line"/>
      <point x="601" y="700" type="line"/>
      <point x="63" y="700" type="line"/>
    </contour>
  </outline>
</glyph>
<glyph name="eogonek" format="2">
  <advance width="586"/>
  <unicode hex="0119"/>
  <outline>
    <contour>
      <point x="413" y="-199" type="curve"/>
      <point x="394" y="-137" type="line"/>
      <point x="383" y="-145"/>
      <point x="368" y="-149"/>
      <point x="354" y="-149" type="curve"/>
      <point x="323" y="-149"/>
      <point x="304" y="-133"/>
      <point x="304" y="-105" type="curve"/>
      <point x="304" y="-70"/>
      <point x="332" y="-38"/>
      <point x="392" y="-1" type="curve"/>
      <point x="439" y="10"/>
      <point x="480" y="32"/>
      <point x="521" y="65" type="curve"/>
      <point x="431" y="147" type="line"/>
      <point x="403" y="120"/>
      <point x="362" y="105"/>
      <point x="316" y="105" type="curve"/>
      <point x="244" y="105"/>
      <point x="187" y="149"/>
      <point x="168" y="214" type="curve"/>
      <point x="556" y="214" type="line"/>
      <point x="556" y="250" type="line"/>
      <point x="556" y="410"/>
      <point x="446" y="530"/>
      <point x="298" y="530" type="curve"/>
      <point x="147" y="530"/>
      <point x="30" y="411"/>
      <point x="30" y="260" type="curve" smooth="yes"/>
      <point x="30" y="111"/>
      <point x="148" y="-6"/>
      <point x="301" y="-10" type="curve"/>
      <point x="248" y="-47"/>
      <point x="224" y="-85"/>
      <point x="224" y="-129" type="curve"/>
      <point x="224" y="-184"/>
      <point x="266" y="-221"/>
      <point x="330" y="-221" type="curve"/>
      <point x="360" y="-221"/>
      <point x="390" y="-212"/>
    </contour>
    <contour>
      <point x="295" y="417" type="curve"/>
      <point x="355" y="417"/>
      <point x="405" y="374"/>
      <point x="422" y="312" type="curve"/>
      <point x="167" y="312" type="line"/>
      <point x="184" y="376"/>
      <point x="232" y="417"/>
    </contour>
  </outline>
</glyph>
<glyph name="hcircumflex" format="2">
  <advance width="593"/>
  <unicode hex="0125"/>
  <outline>
    <contour>
      <point x="195" y="784" type="line"/>
      <point x="307" y="784" type="line"/>
      <point x="192" y="920" type="line"/>
      <point x="52" y="920" type="line"/>
      <point x="-63" y="784" type="line"/>
      <point x="47" y="784" type="line"/>
      <point x="121" y="858" type="line"/>
    </contour>
    <contour>
      <point x="54" y="0" type="line"/>
      <point x="191" y="0" type="line"/>
      <point x="191" y="361" type="line"/>
      <point x="215" y="395"/>
      <point x="252" y="413"/>
      <point x="298" y="413" type="curve" smooth="yes"/>
      <point x="364" y="413"/>
      <point x="406" y="370"/>
      <point x="406" y="304" type="curve"/>
      <point x="406" y="0" type="line"/>
      <point x="543" y="0" type="line"/>
      <point x="543" y="324" type="line" smooth="yes"/>
      <point x="543" y="446"/>
      <point x="458" y="531"/>
      <point x="337" y="531" type="curve"/>
      <point x="280" y="531"/>
      <point x="231" y="513"/>
      <point x="191" y="480" type="curve"/>
      <point x="191" y="700" type="line"/>
      <point x="54" y="700" type="line"/>
    </contour>
  </outline>
</glyph>
<glyph name="Hbar" format="2">
  <advance width="756"/>
  <unicode hex="0126"/>
  <outline>
    <contour>
      <point x="72" y="0" type="line"/>
      <point x="217" y="0" type="line"/>
      <point x="217" y="286" type="line"/>
      <point x="539" y="286" type="line"/>
      <point x="539" y="0" type="line"/>
      <point x="684" y="0" type="line"/>
      <point x="684" y="497" type="line"/>
      <point x="746" y="497" type="line"/>
      <point x="746" y="613" type="line"/>
      <point x="684" y="613" type="line"/>
      <point x="684" y="700" type="line"/>
      <point x="539" y="700" type="line"/>
      <point x="539" y="613" type="line"/>
      <point x="217" y="613" type="line"/>
      <point x="217" y="700" type="line"/>
      <point x="72" y="700" type="line"/>
      <point x="72" y="613" type="line"/>
      <point x="10" y="613" type="line"/>
      <point x="10" y="497" type="line"/>
      <point x="72" y="497" type="line"/>
    </contour>
    <contour>
      <point x="217" y="419" type="line"/>
      <point x="217" y="497" type="line"/>
      <point x="539" y="497" type="line"/>
      <point x="539" y="419" type="line"/>
    </contour>
  </outline>
</glyph>
<glyph name="hbar" format="2">
  <advance width="593"/>
  <unicode hex="0127"/>
  <outline>
    <contour>
      <point x="54" y="0" type="line"/>
      <point x="191" y="0" type="line"/>
      <point x="191" y="361" type="line"/>
      <point x="215" y="395"/>
      <point x="252" y="413"/>
      <point x="298" y="413" type="curve" smooth="yes"/>
      <point x="364" y="413"/>
      <point x="406" y="370"/>
      <point x="406" y="304" type="curve"/>
      <point x="406" y="0" type="line"/>
      <point x="543" y="0" type="line"/>
      <point x="543" y="324" type="line" smooth="yes"/>
      <point x="543" y="446"/>
      <point x="458" y="531"/>
      <point x="337" y="531" type="curve"/>
      <point x="280" y="531"/>
      <point x="231" y="513"/>
      <point x="191" y="480" type="curve"/>
      <point x="191" y="579" type="line"/>
      <point x="329" y="579" type="line"/>
      <point x="329" y="663" type="line"/>
      <point x="191" y="663" type="line"/>
      <point x="191" y="730" type="line"/>
      <point x="54" y="700" type="line"/>
      <point x="54" y="663" type="line"/>
      <point x="-4" y="663" type="line"/>
      <point x="-4" y="579" type="line"/>
      <point x="54" y="579" type="line"/>
    </contour>
  </outline>
</glyph>
<glyph name="Iogonek" format="2">
  <advance width="272"/>
  <unicode hex="012E"/>
  <outline>
    <contour>
      <point x="63" y="0" type="line"/>
      <point x="130" y="0" type="line"/>
      <point x="66" y="-41"/>
      <point x="38" y="-81"/>
      <point x="38" y="-129" type="curve"/>
      <point x="38" y="-184"/>
      <point x="80" y="-221"/>
      <point x="144" y="-221" type="curve"/>
      <point x="174" y="-221"/>
      <point x="204" y="-212"/>
      <point x="227" y="-199" type="curve"/>
      <point x="208" y="-137" type="line"/>
      <point x="197" y="-145"/>
      <point x="182" y="-149"/>
      <point x="168" y="-149" type="curve"/>
      <point x="137" y="-149"/>
      <point x="118" y="-133"/>
      <point x="118" y="-105" type="curve"/>
      <point x="118" y="-70"/>
      <point x="146" y="-37"/>
      <point x="208" y="0" type="curve"/>
      <point x="208" y="700" type="line"/>
      <point x="63" y="700" type="line"/>
    </contour>
  </outline>
</glyph>
<glyph name="iogonek" format="2">
  <advance width="244"/>
  <unicode hex="012F"/>
  <outline>
    <contour>
      <point x="122" y="583" type="curve" smooth="yes"/>
      <point x="165" y="583"/>
      <point x="200" y="618"/>
      <point x="200" y="661" type="curve" smooth="yes"/>
      <point x="200" y="704"/>
      <point x="165" y="739"/>
      <point x="122" y="739" type="curve" smooth="yes"/>
      <point x="79" y="739"/>
      <point x="44" y="704"/>
      <point x="44" y="661" type="curve" smooth="yes"/>
      <point x="44" y="618"/>
      <point x="79" y="583"/>
    </contour>
    <contour>
      <point x="190" y="0" type="curve"/>
      <point x="191" y="0" type="line"/>
      <point x="191" y="521" type="line"/>
      <point x="54" y="521" type="line"/>
      <point x="54" y="0" type="line"/>
      <point x="112" y="0" type="line"/>
      <point x="48" y="-41"/>
      <point x="20" y="-81"/>
      <point x="20" y="-129" type="curve"/>
      <point x="20" y="-184"/>
      <point x="62" y="-221"/>
      <point x="126" y="-221" type="curve"/>
      <point x="156" y="-221"/>
      <point x="186" y="-212"/>
      <point x="209" y="-199" type="curve"/>
      <point x="190" y="-137" type="line"/>
      <point x="179" y="-145"/>
      <point x="164" y="-149"/>
      <point x="150" y="-149" type="curve"/>
      <point x="119" y="-149"/>
      <point x="100" y="-133"/>
      <point x="100" y="-105" type="curve"/>
      <point x="100" y="-70"/>
      <point x="128" y="-37"/>
    </contour>
  </outline>
</glyph>
<glyph name="lacute" format="2">
  <advance width="244"/>
  <unicode hex="013A"/>
  <outline>
    <contour>
      <point x="142" y="917" type="line"/>
      <point x="52" y="787" type="line"/>
      <point x="163" y="787" type="line"/>
      <point x="298" y="917" type="line"/>
    </contour>
    <contour>
      <point x="54" y="0" type="line"/>
      <point x="191" y="0" type="line"/>
      <point x="191" y="700" type="line"/>
      <point x="54" y="700" type="line"/>
    </contour>
  </outline>
</glyph>
<glyph name="Lslash" format="2">
  <advance width="648"/>
  <unicode hex="0141"/>
  <outline>
    <contour>
      <point x="89" y="0" type="line"/>
      <point x="617" y="0" type="line"/>
      <point x="617" y="128" type="line"/>
      <point x="234" y="128" type="line"/>
      <point x="234" y="300" type="line"/>
      <point x="411" y="412" type="line"/>
      <point x="411" y="535" type="line"/>
      <point x="234" y="423" type="line"/>
      <point x="234" y="700" type="line"/>
      <point x="89" y="700" type="line"/>
      <point x="89" y="331" type="line"/>
      <point x="11" y="282" type="line"/>
      <point x="11" y="159" type="line"/>
      <point x="89" y="208" type="line"/>
    </contour>
  </outline>
</glyph>
<glyph name="lslash" format="2">
  <advance width="289"/>
  <unicode hex="0142"/>
  <outline>
    <contour>
      <point x="7" y="334" type="line"/>
      <point x="7" y="209" type="line"/>
      <point x="78" y="259" type="line"/>
      <point x="78" y="0" type="line"/>
      <point x="215" y="0" type="line"/>
      <point x="215" y="356" type="line"/>
      <point x="285" y="405" type="line"/>
      <point x="285" y="530" type="line"/>
      <point x="215" y="481" type="line"/>
      <point x="215" y="730" type="line"/>
      <point x="78" y="700" type="line"/>
      <point x="78" y="384" type="line"/>
    </contour>
  </outline>
</glyph>
<glyph name="OE" format="2">
  <advance width="1100"/>
  <unicode hex="0152"/>
  <outline>
    <contour>
      <point x="400" y="0" type="curve"/>
      <point x="1059" y="0" type="line"/>
      <point x="1059" y="126" type="line"/>
      <point x="674" y="126" type="line"/>
      <point x="715" y="172"/>
      <point x="743" y="230"/>
      <point x="753" y="292" type="curve"/>
      <point x="935" y="292" type="line"/>
      <point x="935" y="414" type="line"/>
      <point x="752" y="414" type="line"/>
      <point x="741" y="474"/>
      <point x="713" y="529"/>
      <point x="673" y="574" type="curve"/>
      <point x="1059" y="574" type="line"/>
      <point x="1059" y="700" type="line"/>
      <point x="400" y="700" type="line"/>
      <point x="199" y="700"/>
      <point x="40" y="545"/>
      <point x="40" y="350" type="curve"/>
      <point x="40" y="155"/>
      <point x="199" y="0"/>
    </contour>
    <contour>
      <point x="400" y="129" type="curve"/>
      <point x="281" y="129"/>
      <point x="189" y="225"/>
      <point x="189" y="350" type="curve"/>
      <point x="189" y="475"/>
      <point x="281" y="571"/>
      <point x="400" y="571" type="curve"/>
      <point x="518" y="571"/>
      <point x="611" y="475"/>
      <point x="611" y="350" type="curve"/>
      <point x="611" y="225"/>
      <point x="518" y="129"/>
    </contour>
  </outline>
</glyph>
<glyph name="Scedilla" format="2">
  <advance width="632"/>
  <unicode hex="015E"/>
  <outline>
    <contour>
      <point x="3" y="111" type="line"/>
      <point x="77" y="43"/>
      <point x="173" y="1"/>
      <point x="272" y="-8" type="curve"/>
      <point x="246" y="-97" type="line"/>
      <point x="288" y="-97" type="line" smooth="yes"/>
      <point x="321" y="-97"/>
      <point x="342" y="-111"/>
      <point x="342" y="-134" type="curve"/>
      <point x="342" y="-158"/>
      <point x="323" y="-172"/>
      <point x="288" y="-172" type="curve"/>
      <point x="260" y="-172"/>
      <point x="234" y="-162"/>
      <point x="210" y="-143" type="curve"/>
      <point x="165" y="-191" type="line"/>
      <point x="199" y="-221"/>
      <point x="240" y="-236"/>
      <point x="290" y="-236" type="curve"/>
      <point x="366" y="-236"/>
      <point x="422" y="-192"/>
      <point x="422" y="-135" type="curve"/>
      <point x="422" y="-85"/>
      <point x="385" y="-51"/>
      <point x="327" y="-46" type="curve"/>
      <point x="338" y="-9" type="line"/>
      <point x="504" y="-2"/>
      <point x="608" y="84"/>
      <point x="608" y="214" type="curve"/>
      <point x="608" y="322"/>
      <point x="539" y="388"/>
      <point x="399" y="411" type="curve" smooth="yes"/>
      <point x="267" y="433" type="line" smooth="yes"/>
      <point x="195" y="444"/>
      <point x="167" y="466"/>
      <point x="167" y="509" type="curve" smooth="yes"/>
      <point x="167" y="557"/>
      <point x="217" y="588"/>
      <point x="295" y="588" type="curve" smooth="yes"/>
      <point x="371" y="588"/>
      <point x="441" y="561"/>
      <point x="516" y="504" type="curve"/>
      <point x="594" y="612" type="line"/>
      <point x="516" y="673"/>
      <point x="407" y="710"/>
      <point x="305" y="710" type="curve" smooth="yes"/>
      <point x="135" y="710"/>
      <point x="29" y="629"/>
      <point x="29" y="498" type="curve"/>
      <point x="29" y="396"/>
      <point x="92" y="331"/>
      <point x="212" y="311" type="curve" smooth="yes"/>
      <point x="351" y="287" type="line" smooth="yes"/>
      <point x="434" y="273"/>
      <point x="466" y="249"/>
      <point x="466" y="201" type="curve"/>
      <point x="466" y="147"/>
      <point x="410" y="113"/>
      <point x="323" y="113" type="curve" smooth="yes"/>
      <point x="239" y="113"/>
      <point x="168" y="144"/>
      <point x="86" y="215" type="curve"/>
    </contour>
  </outline>
</glyph>
<glyph name="Tcedilla" format="2">
  <advance width="652"/>
  <unicode hex="0162"/>
  <outline>
    <contour>
      <point x="18" y="572" type="line"/>
      <point x="254" y="572" type="line"/>
      <point x="254" y="0" type="line"/>
      <point x="291" y="0" type="line"/>
      <point x="263" y="-97" type="line"/>
      <point x="305" y="-97" type="line" smooth="yes"/>
      <point x="338" y="-97"/>
      <point x="359" y="-111"/>
      <point x="359" y="-134" type="curve"/>
      <point x="359" y="-158"/>
      <point x="340" y="-172"/>
      <point x="305" y="-172" type="curve"/>
      <point x="277" y="-172"/>
      <point x="251" y="-162"/>
      <point x="227" y="-143" type="curve"/>
      <point x="182" y="-191" type="line"/>
      <point x="216" y="-221"/>
      <point x="257" y="-236"/>
      <point x="307" y="-236" type="curve"/>
      <point x="383" y="-236"/>
      <point x="439" y="-192"/>
      <point x="439" y="-135" type="curve"/>
      <point x="439" y="-85"/>
      <point x="402" y="-51"/>
      <point x="344" y="-46" type="curve"/>
      <point x="358" y="0" type="line"/>
      <point x="399" y="0" type="line"/>
      <point x="399" y="572" type="line"/>
      <point x="634" y="572" type="line"/>
      <point x="634" y="700" type="line"/>
      <point x="18" y="700" type="line"/>
    </contour>
  </outline>
</glyph>
<glyph name="tcedilla" format="2">
  <advance width="424"/>
  <unicode hex="0163"/>
  <outline>
    <contour>
      <point x="125" y="147" type="line"/>
      <point x="125" y="65"/>
      <point x="164" y="15"/>
      <point x="239" y="-2" type="curve"/>
      <point x="212" y="-97" type="line"/>
      <point x="254" y="-97" type="line" smooth="yes"/>
      <point x="287" y="-97"/>
      <point x="308" y="-111"/>
      <point x="308" y="-134" type="curve"/>
      <point x="308" y="-158"/>
      <point x="289" y="-172"/>
      <point x="254" y="-172" type="curve"/>
      <point x="226" y="-172"/>
      <point x="200" y="-162"/>
      <point x="176" y="-143" type="curve"/>
      <point x="131" y="-191" type="line"/>
      <point x="165" y="-221"/>
      <point x="206" y="-236"/>
      <point x="256" y="-236" type="curve"/>
      <point x="332" y="-236"/>
      <point x="388" y="-192"/>
      <point x="388" y="-135" type="curve"/>
      <point x="388" y="-85"/>
      <point x="351" y="-51"/>
      <point x="293" y="-46" type="curve"/>
      <point x="305" y="-8" type="line"/>
      <point x="331" y="-8"/>
      <point x="378" y="-1"/>
      <point x="407" y="8" type="curve"/>
      <point x="407" y="120" type="line"/>
      <point x="380" y="111"/>
      <point x="360" y="108"/>
      <point x="334" y="108" type="curve"/>
      <point x="281" y="108"/>
      <point x="262" y="126"/>
      <point x="262" y="175" type="curve" smooth="yes"/>
      <point x="262" y="406" type="line"/>
      <point x="410" y="406" type="line"/>
      <point x="410" y="521" type="line"/>
      <point x="262" y="521" type="line"/>
      <point x="262" y="685" type="line"/>
      <point x="125" y="654" type="line"/>
      <point x="125" y="521" type="line"/>
      <point x="18" y="521" type="line"/>
      <point x="18" y="406" type="line"/>
      <point x="125" y="406" type="line"/>
    </contour>
  </outline>
</glyph>
<glyph name="Uogonek" format="2">
  <advance width="725"/>
  <unicode hex="0172"/>
  <outline>
    <contour>
      <point x="672" y="303" type="curve"/>
      <point x="672" y="700" type="line"/>
      <point x="527" y="700" type="line"/>
      <point x="527" y="303" type="line"/>
      <point x="527" y="194"/>
      <point x="463" y="124"/>
      <point x="363" y="124" type="curve" smooth="yes"/>
      <point x="262" y="124"/>
      <point x="197" y="194"/>
      <point x="197" y="303" type="curve"/>
      <point x="197" y="700" type="line"/>
      <point x="52" y="700" type="line"/>
      <point x="52" y="303" type="line"/>
      <point x="52" y="114"/>
      <point x="169" y="-6"/>
      <point x="352" y="-10" type="curve"/>
      <point x="299" y="-47"/>
      <point x="275" y="-85"/>
      <point x="275" y="-129" type="curve"/>
      <point x="275" y="-184"/>
      <point x="317" y="-221"/>
      <point x="381" y="-221" type="curve"/>
      <point x="411" y="-221"/>
      <point x="441" y="-212"/>
      <point x="464" y="-199" type="curve"/>
      <point x="445" y="-137" type="line"/>
      <point x="434" y="-145"/>
      <point x="419" y="-149"/>
      <point x="405" y="-149" type="curve"/>
      <point x="374" y="-149"/>
      <point x="355" y="-133"/>
      <point x="355" y="-105" type="curve"/>
      <point x="355" y="-71"/>
      <point x="382" y="-38"/>
      <point x="442" y="-2" type="curve"/>
      <point x="584" y="28"/>
      <point x="672" y="141"/>
    </contour>
  </outline>
</glyph>
<glyph name="uogonek" format="2">
  <advance width="593"/>
  <unicode hex="0173"/>
  <outline>
    <contour>
      <point x="541" y="0" type="curve"/>
      <point x="540" y="0" type="line"/>
      <point x="540" y="521" type="line"/>
      <point x="403" y="521" type="line"/>
      <point x="403" y="160" type="line"/>
      <point x="379" y="126"/>
      <point x="342" y="108"/>
      <point x="295" y="108" type="curve" smooth="yes"/>
      <point x="230" y="108"/>
      <point x="187" y="151"/>
      <point x="187" y="218" type="curve"/>
      <point x="187" y="521" type="line"/>
      <point x="50" y="521" type="line"/>
      <point x="50" y="198" type="line" smooth="yes"/>
      <point x="50" y="76"/>
      <point x="135" y="-10"/>
      <point x="256" y="-10" type="curve"/>
      <point x="313" y="-10"/>
      <point x="363" y="8"/>
      <point x="403" y="42" type="curve"/>
      <point x="403" y="0" type="line"/>
      <point x="463" y="0" type="line"/>
      <point x="399" y="-41"/>
      <point x="371" y="-81"/>
      <point x="371" y="-129" type="curve"/>
      <point x="371" y="-184"/>
      <point x="413" y="-221"/>
      <point x="477" y="-221" type="curve"/>
      <point x="507" y="-221"/>
      <point x="537" y="-212"/>
      <point x="560" y="-199" type="curve"/>
      <point x="541" y="-137" type="line"/>
      <point x="530" y="-145"/>
      <point x="515" y="-149"/>
      <point x="501" y="-149" type="curve"/>
      <point x="470" y="-149"/>
      <point x="451" y="-133"/>
      <point x="451" y="-105" type="curve"/>
      <point x="451" y="-70"/>
      <point x="479" y="-37"/>
    </contour>
  </outline>
</glyph>
<glyph name="dotlessj" format="2">
  <advance width="244"/>
  <unicode hex="0237"/>
  <anchor x="122" y="521" name="top"/>
  <outline>
    <contour>
      <point x="-50" y="-206" type="line"/>
      <point x="-33" y="-212"/>
      <point x="-2" y="-215"/>
      <point x="23" y="-215" type="curve"/>
      <point x="130" y="-215"/>
      <point x="191" y="-159"/>
      <point x="191" y="-61" type="curve" smooth="yes"/>
      <point x="191" y="521" type="line"/>
      <point x="54" y="521" type="line"/>
      <point x="54" y="-52" type="line" smooth="yes"/>
      <point x="54" y="-89"/>
      <point x="36" y="-105"/>
      <point x="-4" y="-105" type="curve"/>
      <point x="-22" y="-105"/>
      <point x="-34" y="-104"/>
      <point x="-50" y="-101" type="curve"/>
    </contour>
  </outline>
</glyph>
<glyph name="caron" format="2">
  <advance width="517"/>
  <unicode hex="02C7"/>
  <anchor x="260" y="521" name="_top"/>
  <outline>
    <contour>
      <point x="187" y="741" type="line"/>
      <point x="74" y="741" type="line"/>
      <point x="189" y="606" type="line"/>
      <point x="329" y="606" type="line"/>
      <point x="444" y="741" type="line"/>
      <point x="334" y="741" type="line"/>
      <point x="261" y="668" type="line"/>
    </contour>
  </outline>
</glyph>
<glyph name="dotaccent" format="2">
  <advance width="290"/>
  <unicode hex="02D9"/>
  <anchor x="146" y="521" name="_top"/>
  <outline>
    <contour>
      <point x="146" y="602" type="curve" smooth="yes"/>
      <point x="188" y="602"/>
      <point x="220" y="634"/>
      <point x="220" y="675" type="curve" smooth="yes"/>
      <point x="220" y="716"/>
      <point x="188" y="747"/>
      <point x="146" y="747" type="curve" smooth="yes"/>
      <point x="103" y="747"/>
      <point x="71" y="716"/>
      <point x="71" y="675" type="curve" smooth="yes"/>
      <point x="71" y="634"/>
      <point x="103" y="602"/>
    </contour>
  </outline>
</glyph>
<glyph name="ogonek" format="2">
  <advance width="517"/>
  <unicode hex="02DB"/>
  <anchor x="327" y="0" name="_bottom"/>
  <outline>
    <contour>
      <point x="327" y="0" type="curve"/>
      <point x="283" y="20" type="line"/>
      <point x="195" y="-28"/>
      <point x="157" y="-73"/>
      <point x="157" y="-129" type="curve"/>
      <point x="157" y="-184"/>
      <point x="199" y="-221"/>
      <point x="263" y="-221" type="curve"/>
      <point x="293" y="-221"/>
      <point x="323" y="-212"/>
      <point x="346" y="-199" type="curve"/>
      <point x="327" y="-137" type="line"/>
      <point x="316" y="-145"/>
      <point x="301" y="-149"/>
      <point x="287" y="-149" type="curve"/>
      <point x="256" y="-149"/>
      <point x="237" y="-133"/>
      <point x="237" y="-105" type="curve"/>
      <point x="237" y="-70"/>
      <point x="265" y="-37"/>
    </contour>
  </outline>
</glyph>
<glyph name="daggerdbl" format="2">
  <advance width="449"/>
  <unicode hex="2021"/>
  <outline>
    <contour>
      <point x="170" y="0" type="line"/>
      <point x="281" y="0" type="line"/>
      <point x="281" y="181" type="line"/>
      <point x="401" y="181" type="line"/>
      <point x="401" y="287" type="line"/>
      <point x="281" y="287" type="line"/>
      <point x="281" y="413" type="line"/>
      <point x="401" y="413" type="line"/>
      <point x="401" y="519" type="line"/>
      <point x="281" y="519" type="line"/>
      <point x="281" y="700" type="line"/>
      <point x="170" y="700" type="line"/>
      <point x="170" y="519" type="line"/>
      <point x="49" y="519" type="line"/>
      <point x="49" y="413" type="line"/>
      <point x="170" y="413" type="line"/>
      <point x="170" y="287" type="line"/>
      <point x="49" y="287" type="line"/>
      <point x="49" y="181" type="line"/>
      <point x="170" y="181" type="line"/>
    </contour>
  </outline>
</glyph>
<glyph name="bullet" format="2">
  <advance width="355"/>
  <unicode hex="2022"/>
  <outline>
    <contour>
      <point x="177" y="216" type="curve" smooth="yes"/>
      <point x="243" y="216"/>
      <point x="295" y="267"/>
      <point x="295" y="331" type="curve" smooth="yes"/>
      <point x="295" y="396"/>
      <point x="243" y="447"/>
      <point x="177" y="447" type="curve" smooth="yes"/>
      <point x="112" y="447"/>
      <point x="60" y="396"/>
      <point x="60" y="331" type="curve" smooth="yes"/>
      <point x="60" y="267"/>
      <point x="112" y="216"/>
    </contour>
  </outline>
</glyph>
<glyph name="uni2084" format="2">
  <advance width="356"/>
  <unicode hex="2084"/>
  <outline>
    <contour>
      <point x="302" y="350" type="line"/>
      <point x="203" y="350" type="line"/>
      <point x="21" y="145" type="line"/>
      <point x="21" y="76" type="line"/>
      <point x="218" y="76" type="line"/>
      <point x="218" y="0" type="line"/>
      <point x="302" y="0" type="line"/>
      <point x="302" y="76" type="line"/>
      <point x="346" y="76" type="line"/>
      <point x="346" y="147" type="line"/>
      <point x="302" y="147" type="line"/>
    </contour>
    <contour>
      <point x="117" y="147" type="line"/>
      <point x="218" y="260" type="line"/>
      <point x="218" y="147" type="line"/>
    </contour>
  </outline>
</glyph>
<glyph name="uni2085" format="2">
  <advance width="324"/>
  <unicode hex="2085"/>
  <outline>
    <contour>
      <point x="38" y="162" type="line"/>
      <point x="95" y="145" type="line"/>
      <point x="113" y="154"/>
      <point x="135" y="158"/>
      <point x="152" y="158" type="curve" smooth="yes"/>
      <point x="191" y="158"/>
      <point x="217" y="139"/>
      <point x="217" y="113" type="curve" smooth="yes"/>
      <point x="217" y="84"/>
      <point x="194" y="66"/>
      <point x="156" y="66" type="curve"/>
      <point x="125" y="66"/>
      <point x="100" y="76"/>
      <point x="71" y="100" type="curve"/>
      <point x="20" y="41" type="line"/>
      <point x="56" y="11"/>
      <point x="102" y="-6"/>
      <point x="154" y="-6" type="curve"/>
      <point x="243" y="-6"/>
      <point x="304" y="43"/>
      <point x="304" y="114" type="curve" smooth="yes"/>
      <point x="304" y="180"/>
      <point x="252" y="224"/>
      <point x="171" y="224" type="curve" smooth="yes"/>
      <point x="151" y="224"/>
      <point x="133" y="222"/>
      <point x="113" y="215" type="curve"/>
      <point x="115" y="280" type="line"/>
      <point x="284" y="280" type="line"/>
      <point x="284" y="350" type="line"/>
      <point x="47" y="350" type="line"/>
    </contour>
  </outline>
</glyph>
<glyph name="uni2086" format="2">
  <advance width="338"/>
  <unicode hex="2086"/>
  <outline>
    <contour>
      <point x="182" y="-6" type="curve"/>
      <point x="260" y="-6"/>
      <point x="318" y="44"/>
      <point x="318" y="111" type="curve" smooth="yes"/>
      <point x="318" y="174"/>
      <point x="267" y="217"/>
      <point x="195" y="217" type="curve"/>
      <point x="160" y="217"/>
      <point x="128" y="204"/>
      <point x="105" y="181" type="curve"/>
      <point x="110" y="248"/>
      <point x="138" y="282"/>
      <point x="191" y="282" type="curve"/>
      <point x="220" y="282"/>
      <point x="242" y="275"/>
      <point x="262" y="257" type="curve"/>
      <point x="312" y="317" type="line"/>
      <point x="285" y="340"/>
      <point x="240" y="356"/>
      <point x="198" y="356" type="curve"/>
      <point x="92" y="356"/>
      <point x="20" y="282"/>
      <point x="20" y="171" type="curve" smooth="yes"/>
      <point x="20" y="66"/>
      <point x="86" y="-6"/>
    </contour>
    <contour>
      <point x="182" y="152" type="curve"/>
      <point x="214" y="152"/>
      <point x="235" y="135"/>
      <point x="235" y="109" type="curve" smooth="yes"/>
      <point x="235" y="84"/>
      <point x="211" y="66"/>
      <point x="178" y="66" type="curve"/>
      <point x="147" y="66"/>
      <point x="123" y="87"/>
      <point x="112" y="120" type="curve"/>
      <point x="131" y="141"/>
      <point x="154" y="152"/>
    </contour>
  </outline>
</glyph>
<glyph name="uni2191" format="2">
  <advance width="615"/>
  <unicode hex="2191"/>
  <outline>
    <contour>
      <point x="243" y="0" type="line"/>
      <point x="371" y="0" type="line"/>
      <point x="371" y="512" type="line"/>
      <point x="513" y="333" type="line"/>
      <point x="595" y="405" type="line"/>
      <point x="308" y="750" type="line"/>
      <point x="19" y="404" type="line"/>
      <point x="100" y="335" type="line"/>
      <point x="243" y="514" type="line"/>
    </contour>
  </outline>
</glyph>
<glyph name="uni2215" format="2">
  <advance width="577"/>
  <unicode hex="2215"/>
  <outline>
    <contour>
      <point x="120" y="0" type="line"/>
      <point x="516" y="700" type="line"/>
      <point x="414" y="700" type="line"/>
      <point x="18" y="0" type="line"/>
    </contour>
  </outline>
</glyph>
<glyph name="notequal" format="2">
  <advance width="547"/>
  <unicode hex="2260"/>
  <outline>
    <contour>
      <point x="40" y="103" type="line"/>
      <point x="158" y="103" type="line"/>
      <point x="229" y="205" type="line"/>
      <point x="504" y="205" type="line"/>
      <point x="504" y="311" type="line"/>
      <point x="303" y="311" type="line"/>
      <point x="362" y="396" type="line"/>
      <point x="504" y="396" type="line"/>
      <point x="504" y="501" type="line"/>
      <point x="436" y="501" type="line"/>
      <point x="506" y="602" type="line"/>
      <point x="390" y="602" type="line"/>
      <point x="319" y="501" type="line"/>
      <point x="46" y="501" type="line"/>
      <point x="46" y="396" type="line"/>
      <point x="246" y="396" type="line"/>
      <point x="186" y="311" type="line"/>
      <point x="46" y="311" type="line"/>
      <point x="46" y="205" type="line"/>
      <point x="112" y="205" type="line"/>
    </contour>
  </outline>
</glyph>
<glyph name="caronSlovak" format="2">
  <advance width="317"/>
  <outline>
    <contour>
      <point x="117" y="720" type="line"/>
      <point x="109" y="478" type="line"/>
      <point x="200" y="478" type="line"/>
      <point x="250" y="720" type="line"/>
    </contour>
  </outline>
</glyph>
<glyph name="g.alt" format="2">
  <advance width="600"/>
  <note>
Version created Sun Jan 13 16:53:00 2019
</note>
  <anchor x="289" y="521" name="top"/>
  <outline>
    <contour>
      <point x="53" y="335" type="curve" smooth="yes"/>
      <point x="53" y="266"/>
      <point x="94" y="207"/>
      <point x="159" y="173" type="curve"/>
      <point x="112" y="154"/>
      <point x="84" y="119"/>
      <point x="84" y="76" type="curve"/>
      <point x="84" y="46"/>
      <point x="96" y="21"/>
      <point x="119" y="3" type="curve"/>
      <point x="58" y="-16"/>
      <point x="19" y="-52"/>
      <point x="19" y="-96" type="curve" smooth="yes"/>
      <point x="19" y="-175"/>
      <point x="110" y="-217"/>
      <point x="279" y="-217" type="curve" smooth="yes"/>
      <point x="470" y="-217"/>
      <point x="592" y="-150"/>
      <point x="592" y="-45" type="curve" smooth="yes"/>
      <point x="592" y="29"/>
      <point x="532" y="74"/>
      <point x="432" y="76" type="curve" smooth="yes"/>
      <point x="257" y="81" type="line" smooth="yes"/>
      <point x="220" y="83"/>
      <point x="202" y="94"/>
      <point x="202" y="115" type="curve" smooth="yes"/>
      <point x="202" y="130"/>
      <point x="214" y="141"/>
      <point x="234" y="148" type="curve"/>
      <point x="251" y="145"/>
      <point x="269" y="143"/>
      <point x="288" y="143" type="curve" smooth="yes"/>
      <point x="422" y="143"/>
      <point x="522" y="225"/>
      <point x="522" y="335" type="curve" smooth="yes"/>
      <point x="522" y="373"/>
      <point x="509" y="409"/>
      <point x="487" y="439" type="curve"/>
      <point x="509" y="448"/>
      <point x="534" y="453"/>
      <point x="560" y="453" type="curve" smooth="yes"/>
      <point x="574" y="453"/>
      <point x="588" y="452"/>
      <point x="597" y="450" type="curve"/>
      <point x="595" y="553" type="line"/>
      <point x="586" y="556"/>
      <point x="576" y="558"/>
      <point x="562" y="558" type="curve" smooth="yes"/>
      <point x="514" y="558"/>
      <point x="471" y="533"/>
      <point x="439" y="485" type="curve"/>
      <point x="399" y="514"/>
      <point x="346" y="531"/>
      <point x="288" y="531" type="curve" smooth="yes"/>
      <point x="156" y="531"/>
      <point x="53" y="444"/>
    </contour>
    <contour>
      <point x="394" y="335" type="curve" smooth="yes"/>
      <point x="394" y="281"/>
      <point x="348" y="240"/>
      <point x="288" y="240" type="curve" smooth="yes"/>
      <point x="227" y="240"/>
      <point x="182" y="280"/>
      <point x="182" y="335" type="curve" smooth="yes"/>
      <point x="182" y="388"/>
      <point x="227" y="429"/>
      <point x="288" y="429" type="curve" smooth="yes"/>
      <point x="348" y="429"/>
      <point x="394" y="388"/>
    </contour>
    <contour>
      <point x="143" y="-78" type="curve"/>
      <point x="143" y="-55"/>
      <point x="164" y="-38"/>
      <point x="200" y="-30" type="curve"/>
      <point x="218" y="-33"/>
      <point x="237" y="-35"/>
      <point x="259" y="-36" type="curve" smooth="yes"/>
      <point x="410" y="-40" type="line" smooth="yes"/>
      <point x="439" y="-40"/>
      <point x="455" y="-52"/>
      <point x="455" y="-71" type="curve" smooth="yes"/>
      <point x="455" y="-108"/>
      <point x="387" y="-132"/>
      <point x="277" y="-132" type="curve" smooth="yes"/>
      <point x="188" y="-132"/>
      <point x="143" y="-114"/>
    </contour>
  </outline>
</glyph>
<glyph name="reversequotedblleft" format="2">
  <advance width="433"/>
  <outline>
    <contour>
      <point x="157" y="741" type="line"/>
      <point x="15" y="741" type="line"/>
      <point x="123" y="478" type="line"/>
      <point x="226" y="478" type="line"/>
    </contour>
    <contour>
      <point x="349" y="741" type="line"/>
      <point x="207" y="741" type="line"/>
      <point x="314" y="478" type="line"/>
      <point x="418" y="478" type="line"/>
    </contour>
  </outline>
</glyph>
